<?xml version="1.0" encoding="utf-8"?>
<!-- Generated by IcoMoon.io -->
<!DOCTYPE svg PUBLIC "-//W3C//DTD SVG 1.1//EN" "http://www.w3.org/Graphics/SVG/1.1/DTD/svg11.dtd">
<svg version="1.1" xmlns="http://www.w3.org/2000/svg" xmlns:xlink="http://www.w3.org/1999/xlink" width="32" height="32" viewBox="0 0 32 32">
<rect fill="#ffffff" x="0" y="0" width="32" height="32"></rect>
<path fill="#444444" d="M26.667 3.556h-21.333c-0.978 0-1.778 0.8-1.778 1.778v21.333c0 0.978 0.8 1.778 1.778 1.778h21.333c0.978 0 1.778-0.8 1.778-1.778v-21.333c0-0.978-0.8-1.778-1.778-1.778zM16 8.444c2.204 0 4 1.796 4 4s-1.796 4-4 4-4-1.796-4-4 1.796-4 4-4zM24 24.889h-16v-1.333c0-2.667 5.333-4 8-4s8 1.333 8 4v1.333z"></path>
</svg>
