<?xml version="1.0" encoding="utf-8"?>
<!-- Generated by IcoMoon.io -->
<!DOCTYPE svg PUBLIC "-//W3C//DTD SVG 1.1//EN" "http://www.w3.org/Graphics/SVG/1.1/DTD/svg11.dtd">
<svg version="1.1" xmlns="http://www.w3.org/2000/svg" xmlns:xlink="http://www.w3.org/1999/xlink" width="48" height="48" viewBox="0 0 48 48">
<rect fill="#ffffff" x="0" y="0" width="48" height="48"></rect>
<path fill="#444444" d="M40 5.333h-32c-1.467 0-2.667 1.2-2.667 2.667v32c0 1.467 1.2 2.667 2.667 2.667h32c1.467 0 2.667-1.2 2.667-2.667v-32c0-1.467-1.2-2.667-2.667-2.667zM24 12.667c3.307 0 6 2.693 6 6s-2.693 6-6 6-6-2.693-6-6 2.693-6 6-6zM36 37.333h-24v-2c0-4 8-6 12-6s12 2 12 6v2z"></path>
</svg>
