<?xml version="1.0" encoding="utf-8"?>
<!-- Generated by IcoMoon.io -->
<!DOCTYPE svg PUBLIC "-//W3C//DTD SVG 1.1//EN" "http://www.w3.org/Graphics/SVG/1.1/DTD/svg11.dtd">
<svg version="1.1" xmlns="http://www.w3.org/2000/svg" xmlns:xlink="http://www.w3.org/1999/xlink" width="32" height="32" viewBox="0 0 32 32">
<rect fill="#ffffff" x="0" y="0" width="32" height="32"></rect>
<path fill="#444444" d="M16 1.778c-7.858 0-14.222 6.364-14.222 14.222s6.364 14.222 14.222 14.222 14.222-6.364 14.222-14.222-6.364-14.222-14.222-14.222zM16 6.667c2.204 0 4 1.796 4 4s-1.796 4-4 4-4-1.796-4-4 1.796-4 4-4zM16 25.778c-3.307 0-6.204-1.636-7.982-4.142 0.196-2.578 5.369-3.858 7.982-3.858s7.787 1.28 7.982 3.858c-1.778 2.507-4.676 4.142-7.982 4.142z"></path>
</svg>
