<?xml version="1.0" encoding="utf-8"?>
<!-- Generated by IcoMoon.io -->
<!DOCTYPE svg PUBLIC "-//W3C//DTD SVG 1.1//EN" "http://www.w3.org/Graphics/SVG/1.1/DTD/svg11.dtd">
<svg version="1.1" xmlns="http://www.w3.org/2000/svg" xmlns:xlink="http://www.w3.org/1999/xlink" width="48" height="48" viewBox="0 0 48 48">
<rect fill="#ffffff" x="0" y="0" width="48" height="48"></rect>
<path fill="#444444" d="M24 2.667c-11.787 0-21.333 9.547-21.333 21.333s9.547 21.333 21.333 21.333 21.333-9.547 21.333-21.333-9.547-21.333-21.333-21.333zM24 10c3.307 0 6 2.693 6 6s-2.693 6-6 6-6-2.693-6-6 2.693-6 6-6zM24 38.667c-4.96 0-9.307-2.453-11.973-6.213 0.293-3.867 8.053-5.787 11.973-5.787s11.68 1.92 11.973 5.787c-2.667 3.76-7.013 6.213-11.973 6.213z"></path>
</svg>
