<?xml version="1.0" encoding="utf-8"?>
<!-- Generated by IcoMoon.io -->
<!DOCTYPE svg PUBLIC "-//W3C//DTD SVG 1.1//EN" "http://www.w3.org/Graphics/SVG/1.1/DTD/svg11.dtd">
<svg version="1.1" xmlns="http://www.w3.org/2000/svg" xmlns:xlink="http://www.w3.org/1999/xlink" width="32" height="32" viewBox="0 0 32 32">
<rect fill="#ffffff" x="0" y="0" width="32" height="32"></rect>
<path fill="#444444" d="M14.667 12h2.667v-4h4v-2.667h-4v-4h-2.667v4h-4v2.667h4v4zM9.333 24c-1.467 0-2.653 1.2-2.653 2.667s1.187 2.667 2.653 2.667 2.667-1.2 2.667-2.667-1.2-2.667-2.667-2.667zM22.667 24c-1.467 0-2.653 1.2-2.653 2.667s1.187 2.667 2.653 2.667 2.667-1.2 2.667-2.667-1.2-2.667-2.667-2.667zM9.56 19.667l0.040-0.16 1.2-2.173h9.933c1 0 1.88-0.547 2.333-1.373l5.147-9.347-2.32-1.28h-0.013l-1.467 2.667-3.68 6.667h-9.36l-0.173-0.36-2.987-6.307-1.267-2.667-1.253-2.667h-4.36v2.667h2.667l4.8 10.12-1.8 3.267c-0.213 0.373-0.333 0.813-0.333 1.28 0 1.467 1.2 2.667 2.667 2.667h16v-2.667h-15.44c-0.173 0-0.333-0.147-0.333-0.333z"></path>
</svg>
