<?xml version="1.0" encoding="utf-8"?>
<!-- Generated by IcoMoon.io -->
<!DOCTYPE svg PUBLIC "-//W3C//DTD SVG 1.1//EN" "http://www.w3.org/Graphics/SVG/1.1/DTD/svg11.dtd">
<svg version="1.1" xmlns="http://www.w3.org/2000/svg" xmlns:xlink="http://www.w3.org/1999/xlink" width="32" height="32" viewBox="0 0 32 32">
<rect fill="#ffffff" x="0" y="0" width="32" height="32"></rect>
<path fill="#444444" d="M3.556 17.778h5.333v-5.333h-5.333v5.333zM3.556 8.889h5.333v-5.333h-5.333v5.333zM3.556 26.667h5.333v-5.333h-5.333v5.333zM12.444 26.667h5.333v-5.333h-5.333v5.333zM21.333 17.778h5.333v-5.333h-5.333v5.333zM12.444 17.778h5.333v-5.333h-5.333v5.333zM21.333 26.667h5.333v-5.333h-5.333v5.333zM21.333 3.556v5.333h5.333v-5.333h-5.333zM12.444 8.889h5.333v-5.333h-5.333v5.333z"></path>
</svg>
