<?xml version="1.0" encoding="utf-8"?>
<!-- Generated by IcoMoon.io -->
<!DOCTYPE svg PUBLIC "-//W3C//DTD SVG 1.1//EN" "http://www.w3.org/Graphics/SVG/1.1/DTD/svg11.dtd">
<svg version="1.1" xmlns="http://www.w3.org/2000/svg" xmlns:xlink="http://www.w3.org/1999/xlink" width="48" height="48" viewBox="0 0 48 48">
<rect fill="#ffffff" x="0" y="0" width="48" height="48"></rect>
<path fill="#444444" d="M5.333 26.667h8v-8h-8v8zM5.333 13.333h8v-8h-8v8zM5.333 40h8v-8h-8v8zM18.667 40h8v-8h-8v8zM32 26.667h8v-8h-8v8zM18.667 26.667h8v-8h-8v8zM32 40h8v-8h-8v8zM32 5.333v8h8v-8h-8zM18.667 13.333h8v-8h-8v8z"></path>
</svg>
