<?xml version="1.0" encoding="utf-8"?>
<!-- Generated by IcoMoon.io -->
<!DOCTYPE svg PUBLIC "-//W3C//DTD SVG 1.1//EN" "http://www.w3.org/Graphics/SVG/1.1/DTD/svg11.dtd">
<svg version="1.1" xmlns="http://www.w3.org/2000/svg" xmlns:xlink="http://www.w3.org/1999/xlink" width="48" height="48" viewBox="0 0 48 48">
<rect fill="#ffffff" x="0" y="0" width="48" height="48"></rect>
<path fill="#444444" d="M40 13.333h-29.333c-5.867 0-10.667 4.8-10.667 10.667s4.8 10.667 10.667 10.667h26.667v-2.667h-26.667c-4.533 0-8-3.467-8-8s3.467-8 8-8h29.333c2.933 0 5.333 2.4 5.333 5.333s-2.4 5.333-5.333 5.333h-24c-1.6 0-2.667-1.067-2.667-2.667s1.067-2.667 2.667-2.667h21.333v-2.667h-21.333c-2.933 0-5.333 2.4-5.333 5.333s2.4 5.333 5.333 5.333h24c4.533 0 8-3.467 8-8s-3.467-8-8-8z"></path>
</svg>
