<?xml version="1.0" encoding="utf-8"?>
<!-- Generated by IcoMoon.io -->
<!DOCTYPE svg PUBLIC "-//W3C//DTD SVG 1.1//EN" "http://www.w3.org/Graphics/SVG/1.1/DTD/svg11.dtd">
<svg version="1.1" xmlns="http://www.w3.org/2000/svg" xmlns:xlink="http://www.w3.org/1999/xlink" width="32" height="32" viewBox="0 0 32 32">
<rect fill="#ffffff" x="0" y="0" width="32" height="32"></rect>
<path fill="#444444" d="M26.667 8.889h-19.556c-3.911 0-7.111 3.2-7.111 7.111s3.2 7.111 7.111 7.111h17.778v-1.778h-17.778c-3.022 0-5.333-2.311-5.333-5.333s2.311-5.333 5.333-5.333h19.556c1.956 0 3.556 1.6 3.556 3.556s-1.6 3.556-3.556 3.556h-16c-1.067 0-1.778-0.711-1.778-1.778s0.711-1.778 1.778-1.778h14.222v-1.778h-14.222c-1.956 0-3.556 1.6-3.556 3.556s1.6 3.556 3.556 3.556h16c3.022 0 5.333-2.311 5.333-5.333s-2.311-5.333-5.333-5.333z"></path>
</svg>
