<?xml version="1.0" encoding="utf-8"?>
<!-- Generated by IcoMoon.io -->
<!DOCTYPE svg PUBLIC "-//W3C//DTD SVG 1.1//EN" "http://www.w3.org/Graphics/SVG/1.1/DTD/svg11.dtd">
<svg version="1.1" xmlns="http://www.w3.org/2000/svg" xmlns:xlink="http://www.w3.org/1999/xlink" width="32" height="32" viewBox="0 0 32 32">
<rect fill="#ffffff" x="0" y="0" width="32" height="32"></rect>
<path fill="#444444" d="M23.111 24.889c0 3.929-3.182 7.111-7.111 7.111s-7.111-3.182-7.111-7.111v-19.556c0-2.951 2.382-5.333 5.333-5.333s5.333 2.382 5.333 5.333v16c0 1.956-1.6 3.556-3.556 3.556s-3.556-1.6-3.556-3.556v-14.222h1.778v14.222c0 0.978 0.8 1.778 1.778 1.778s1.778-0.8 1.778-1.778v-16c0-1.956-1.6-3.556-3.556-3.556s-3.556 1.6-3.556 3.556v19.556c0 2.951 2.382 5.333 5.333 5.333s5.333-2.382 5.333-5.333v-17.778h1.778v17.778z"></path>
</svg>
