<?xml version="1.0" encoding="utf-8"?>
<!-- Generated by IcoMoon.io -->
<!DOCTYPE svg PUBLIC "-//W3C//DTD SVG 1.1//EN" "http://www.w3.org/Graphics/SVG/1.1/DTD/svg11.dtd">
<svg version="1.1" xmlns="http://www.w3.org/2000/svg" xmlns:xlink="http://www.w3.org/1999/xlink" width="48" height="48" viewBox="0 0 48 48">
<rect fill="#ffffff" x="0" y="0" width="48" height="48"></rect>
<path fill="#444444" d="M24 12v6l8-8-8-8v6c-8.84 0-16 7.16-16 16 0 3.14 0.92 6.060 2.48 8.52l2.92-2.92c-0.9-1.66-1.4-3.58-1.4-5.6 0-6.62 5.38-12 12-12zM37.52 15.48l-2.92 2.92c0.88 1.68 1.4 3.58 1.4 5.6 0 6.62-5.38 12-12 12v-6l-8 8 8 8v-6c8.84 0 16-7.16 16-16 0-3.14-0.92-6.060-2.48-8.52z"></path>
</svg>
