<?xml version="1.0" encoding="utf-8"?>
<!-- Generated by IcoMoon.io -->
<!DOCTYPE svg PUBLIC "-//W3C//DTD SVG 1.1//EN" "http://www.w3.org/Graphics/SVG/1.1/DTD/svg11.dtd">
<svg version="1.1" xmlns="http://www.w3.org/2000/svg" xmlns:xlink="http://www.w3.org/1999/xlink" width="48" height="48" viewBox="0 0 48 48">
<rect fill="#ffffff" x="0" y="0" width="48" height="48"></rect>
<path fill="#444444" d="M44 6h-30c-1.38 0-2.46 0.7-3.18 1.76l-10.82 16.24 10.82 16.22c0.72 1.060 1.8 1.78 3.18 1.78h30c2.2 0 4-1.8 4-4v-28c0-2.2-1.8-4-4-4zM38 31.18l-2.82 2.82-7.18-7.18-7.18 7.18-2.82-2.82 7.18-7.18-7.18-7.18 2.82-2.82 7.18 7.18 7.18-7.18 2.82 2.82-7.18 7.18 7.18 7.18z"></path>
</svg>
