<?xml version="1.0" encoding="utf-8"?>
<!-- Generated by IcoMoon.io -->
<!DOCTYPE svg PUBLIC "-//W3C//DTD SVG 1.1//EN" "http://www.w3.org/Graphics/SVG/1.1/DTD/svg11.dtd">
<svg version="1.1" xmlns="http://www.w3.org/2000/svg" xmlns:xlink="http://www.w3.org/1999/xlink" width="48" height="48" viewBox="0 0 48 48">
<rect fill="#ffffff" x="0" y="0" width="48" height="48"></rect>
<path fill="#444444" d="M14 28c-3.32 0-6 2.68-6 6 0 2.62-2.32 4-4 4 1.84 2.44 4.98 4 8 4 4.42 0 8-3.58 8-8 0-3.32-2.68-6-6-6zM41.42 9.26l-2.68-2.68c-0.78-0.78-2.040-0.78-2.82 0l-17.92 17.92 5.5 5.5 17.92-17.92c0.78-0.78 0.78-2.040 0-2.82z"></path>
</svg>
