<?xml version="1.0" encoding="utf-8"?>
<!-- Generated by IcoMoon.io -->
<!DOCTYPE svg PUBLIC "-//W3C//DTD SVG 1.1//EN" "http://www.w3.org/Graphics/SVG/1.1/DTD/svg11.dtd">
<svg version="1.1" xmlns="http://www.w3.org/2000/svg" xmlns:xlink="http://www.w3.org/1999/xlink" width="32" height="32" viewBox="0 0 32 32">
<rect fill="#ffffff" x="0" y="0" width="32" height="32"></rect>
<path fill="#444444" d="M9.333 18.667c-2.213 0-4 1.787-4 4 0 1.747-1.547 2.667-2.667 2.667 1.227 1.627 3.32 2.667 5.333 2.667 2.947 0 5.333-2.387 5.333-5.333 0-2.213-1.787-4-4-4zM27.613 6.173l-1.787-1.787c-0.52-0.52-1.36-0.52-1.88 0l-11.947 11.947 3.667 3.667 11.947-11.947c0.52-0.52 0.52-1.36 0-1.88z"></path>
</svg>
