<?xml version="1.0" encoding="utf-8"?>
<!-- Generated by IcoMoon.io -->
<!DOCTYPE svg PUBLIC "-//W3C//DTD SVG 1.1//EN" "http://www.w3.org/Graphics/SVG/1.1/DTD/svg11.dtd">
<svg version="1.1" xmlns="http://www.w3.org/2000/svg" xmlns:xlink="http://www.w3.org/1999/xlink" width="48" height="48" viewBox="0 0 48 48">
<rect fill="#ffffff" x="0" y="0" width="48" height="48"></rect>
<path fill="#444444" d="M38 16l-8 8h6c0 6.62-5.38 12-12 12-2.020 0-3.94-0.5-5.6-1.4l-2.92 2.92c2.46 1.56 5.38 2.48 8.52 2.48 8.84 0 16-7.16 16-16h6l-8-8zM12 24c0-6.62 5.38-12 12-12 2.020 0 3.94 0.5 5.6 1.4l2.92-2.92c-2.46-1.56-5.38-2.48-8.52-2.48-8.84 0-16 7.16-16 16h-6l8 8 8-8h-6z"></path>
</svg>
