<?xml version="1.0" encoding="utf-8"?>
<!-- Generated by IcoMoon.io -->
<!DOCTYPE svg PUBLIC "-//W3C//DTD SVG 1.1//EN" "http://www.w3.org/Graphics/SVG/1.1/DTD/svg11.dtd">
<svg version="1.1" xmlns="http://www.w3.org/2000/svg" xmlns:xlink="http://www.w3.org/1999/xlink" width="48" height="48" viewBox="0 0 48 48">
<rect fill="#ffffff" x="0" y="0" width="48" height="48"></rect>
<path fill="#444444" d="M13.24 21.58c2.88 5.66 7.52 10.28 13.18 13.18l4.4-4.4c0.54-0.54 1.34-0.72 2.040-0.48 2.24 0.74 4.66 1.14 7.14 1.14 1.1 0 2 0.9 2 2v6.98c0 1.1-0.9 2-2 2-18.78 0-34-15.22-34-34 0-1.1 0.9-2 2-2h7c1.1 0 2 0.9 2 2 0 2.5 0.4 4.9 1.14 7.14 0.22 0.7 0.060 1.48-0.5 2.040l-4.4 4.4z"></path>
</svg>
