<?xml version="1.0" encoding="utf-8"?>
<!-- Generated by IcoMoon.io -->
<!DOCTYPE svg PUBLIC "-//W3C//DTD SVG 1.1//EN" "http://www.w3.org/Graphics/SVG/1.1/DTD/svg11.dtd">
<svg version="1.1" xmlns="http://www.w3.org/2000/svg" xmlns:xlink="http://www.w3.org/1999/xlink" width="48" height="48" viewBox="0 0 48 48">
<rect fill="#ffffff" x="0" y="0" width="48" height="48"></rect>
<path fill="#444444" d="M24 18c-3.2 0-6.3 0.5-9.2 1.44v6.2c0 0.78-0.46 1.48-1.12 1.8-1.96 0.98-3.74 2.24-5.32 3.7-0.36 0.36-0.86 0.56-1.4 0.56-0.56 0-1.060-0.22-1.42-0.58l-4.96-4.96c-0.36-0.34-0.58-0.84-0.58-1.4s0.22-1.060 0.58-1.42c6.1-5.78 14.34-9.34 23.42-9.34s17.32 3.56 23.42 9.34c0.36 0.36 0.58 0.86 0.58 1.42s-0.22 1.060-0.58 1.42l-4.96 4.96c-0.36 0.36-0.86 0.58-1.42 0.58-0.54 0-1.040-0.22-1.4-0.56-1.58-1.48-3.38-2.72-5.34-3.7-0.66-0.32-1.12-1-1.12-1.8v-6.2c-2.88-0.96-5.98-1.46-9.18-1.46z"></path>
</svg>
