<?xml version="1.0" encoding="utf-8"?>
<!-- Generated by IcoMoon.io -->
<!DOCTYPE svg PUBLIC "-//W3C//DTD SVG 1.1//EN" "http://www.w3.org/Graphics/SVG/1.1/DTD/svg11.dtd">
<svg version="1.1" xmlns="http://www.w3.org/2000/svg" xmlns:xlink="http://www.w3.org/1999/xlink" width="32" height="32" viewBox="0 0 32 32">
<rect fill="#ffffff" x="0" y="0" width="32" height="32"></rect>
<path fill="#444444" d="M12.533 14l6.36-11.013c-0.933-0.2-1.893-0.32-2.893-0.32-3.2 0-6.133 1.133-8.427 3l4.88 8.467 0.080-0.133zM28.72 12c-1.227-3.893-4.2-7.013-8-8.453l-4.88 8.453h12.88zM29.067 13.333h-9.987l0.387 0.667 6.347 11c2.187-2.373 3.52-5.52 3.52-9 0-0.92-0.093-1.8-0.267-2.667zM11.387 16l-5.2-9c-2.173 2.373-3.52 5.52-3.52 9 0 0.92 0.093 1.8 0.267 2.667h9.987l-1.533-2.667zM3.28 20c1.227 3.893 4.2 7.013 8 8.453l4.88-8.453h-12.88zM18.307 20l-5.2 9.013c0.933 0.2 1.893 0.32 2.893 0.32 3.2 0 6.133-1.133 8.427-3l-4.88-8.467-1.24 2.133z"></path>
</svg>
