<?xml version="1.0" encoding="utf-8"?>
<!-- Generated by IcoMoon.io -->
<!DOCTYPE svg PUBLIC "-//W3C//DTD SVG 1.1//EN" "http://www.w3.org/Graphics/SVG/1.1/DTD/svg11.dtd">
<svg version="1.1" xmlns="http://www.w3.org/2000/svg" xmlns:xlink="http://www.w3.org/1999/xlink" width="32" height="32" viewBox="0 0 32 32">
<rect fill="#ffffff" x="0" y="0" width="32" height="32"></rect>
<path fill="#444444" d="M16 1.778c-7.858 0-14.222 6.364-14.222 14.222s6.364 14.222 14.222 14.222 14.222-6.364 14.222-14.222-6.364-14.222-14.222-14.222zM22.222 21.333h-11.556c-2.453 0-4.444-1.991-4.444-4.444s1.991-4.444 4.444-4.444h0.32c0.747-2.062 2.702-3.556 5.013-3.556 2.951 0 5.333 2.382 5.333 5.333h0.889c1.956 0 3.556 1.6 3.556 3.556s-1.6 3.556-3.556 3.556z"></path>
</svg>
