<?xml version="1.0" encoding="utf-8"?>
<!-- Generated by IcoMoon.io -->
<!DOCTYPE svg PUBLIC "-//W3C//DTD SVG 1.1//EN" "http://www.w3.org/Graphics/SVG/1.1/DTD/svg11.dtd">
<svg version="1.1" xmlns="http://www.w3.org/2000/svg" xmlns:xlink="http://www.w3.org/1999/xlink" width="48" height="48" viewBox="0 0 48 48">
<rect fill="#ffffff" x="0" y="0" width="48" height="48"></rect>
<path fill="#444444" d="M24 2.667c-11.787 0-21.333 9.547-21.333 21.333s9.547 21.333 21.333 21.333 21.333-9.547 21.333-21.333-9.547-21.333-21.333-21.333zM33.333 32h-17.333c-3.68 0-6.667-2.987-6.667-6.667s2.987-6.667 6.667-6.667h0.48c1.12-3.093 4.053-5.333 7.52-5.333 4.427 0 8 3.573 8 8h1.333c2.933 0 5.333 2.4 5.333 5.333s-2.4 5.333-5.333 5.333z"></path>
</svg>
