<?xml version="1.0" encoding="utf-8"?>
<!-- Generated by IcoMoon.io -->
<!DOCTYPE svg PUBLIC "-//W3C//DTD SVG 1.1//EN" "http://www.w3.org/Graphics/SVG/1.1/DTD/svg11.dtd">
<svg version="1.1" xmlns="http://www.w3.org/2000/svg" xmlns:xlink="http://www.w3.org/1999/xlink" width="48" height="48" viewBox="0 0 48 48">
<rect fill="#ffffff" x="0" y="0" width="48" height="48"></rect>
<path fill="#444444" d="M38.7 20.080c-1.36-6.9-7.42-12.080-14.7-12.080-2.96 0-5.7 0.86-8.020 2.34l2.92 2.92c1.52-0.8 3.26-1.26 5.1-1.26 6.080 0 11 4.92 11 11v1h3c3.32 0 6 2.68 6 6 0 2.26-1.28 4.22-3.12 5.24l2.9 2.9c2.54-1.82 4.22-4.78 4.22-8.14 0-5.28-4.1-9.56-9.3-9.92zM6 10.54l5.5 5.48c-6.38 0.28-11.5 5.52-11.5 11.98 0 6.62 5.38 12 12 12h23.46l4 4 2.54-2.54-33.46-33.46-2.54 2.54zM15.46 20l16 16h-19.46c-4.42 0-8-3.58-8-8s3.58-8 8-8h3.46z"></path>
</svg>
