<?xml version="1.0" encoding="utf-8"?>
<!-- Generated by IcoMoon.io -->
<!DOCTYPE svg PUBLIC "-//W3C//DTD SVG 1.1//EN" "http://www.w3.org/Graphics/SVG/1.1/DTD/svg11.dtd">
<svg version="1.1" xmlns="http://www.w3.org/2000/svg" xmlns:xlink="http://www.w3.org/1999/xlink" width="32" height="32" viewBox="0 0 32 32">
<rect fill="#ffffff" x="0" y="0" width="32" height="32"></rect>
<path fill="#444444" d="M26.667 0h-21.333v2.667h21.333v-2.667zM5.333 32h21.333v-2.667h-21.333v2.667zM26.667 5.333h-21.333c-1.467 0-2.667 1.2-2.667 2.667v16c0 1.467 1.2 2.667 2.667 2.667h21.333c1.467 0 2.667-1.2 2.667-2.667v-16c0-1.467-1.2-2.667-2.667-2.667zM16 9c1.653 0 3 1.347 3 3s-1.347 3-3 3-3-1.347-3-3 1.347-3 3-3zM22.667 22.667h-13.333v-2c0-2.227 4.44-3.333 6.667-3.333s6.667 1.107 6.667 3.333v2z"></path>
</svg>
