<?xml version="1.0" encoding="utf-8"?>
<!-- Generated by IcoMoon.io -->
<!DOCTYPE svg PUBLIC "-//W3C//DTD SVG 1.1//EN" "http://www.w3.org/Graphics/SVG/1.1/DTD/svg11.dtd">
<svg version="1.1" xmlns="http://www.w3.org/2000/svg" xmlns:xlink="http://www.w3.org/1999/xlink" width="32" height="32" viewBox="0 0 32 32">
<rect fill="#ffffff" x="0" y="0" width="32" height="32"></rect>
<path fill="#444444" d="M28 10.667v-1.333l-4 2.667-4-2.667v1.333l4 2.667 4-2.667zM29.333 4h-26.667c-1.467 0-2.667 1.2-2.667 2.667v18.667c0 1.467 1.2 2.667 2.667 2.667h26.667c1.467 0 2.653-1.2 2.653-2.667l0.013-18.667c0-1.467-1.2-2.667-2.667-2.667zM10.667 8c2.213 0 4 1.787 4 4s-1.787 4-4 4-4-1.787-4-4 1.787-4 4-4zM18.667 24h-16v-1.333c0-2.667 5.333-4.133 8-4.133s8 1.467 8 4.133v1.333zM29.333 16h-10.667v-8h10.667v8z"></path>
</svg>
