<?xml version="1.0" encoding="utf-8"?>
<!-- Generated by IcoMoon.io -->
<!DOCTYPE svg PUBLIC "-//W3C//DTD SVG 1.1//EN" "http://www.w3.org/Graphics/SVG/1.1/DTD/svg11.dtd">
<svg version="1.1" xmlns="http://www.w3.org/2000/svg" xmlns:xlink="http://www.w3.org/1999/xlink" width="48" height="48" viewBox="0 0 48 48">
<rect fill="#ffffff" x="0" y="0" width="48" height="48"></rect>
<path fill="#444444" d="M47.562 38.562c-0-0-0-0-0.001-0l-14.561-14.562 14.561-14.562c0-0 0-0 0.001-0 0.157-0.157 0.27-0.34 0.343-0.535 0.199-0.533 0.086-1.157-0.343-1.586l-6.879-6.879c-0.429-0.429-1.052-0.542-1.586-0.343-0.195 0.073-0.378 0.186-0.535 0.343 0 0-0 0-0 0l-14.562 14.562-14.562-14.562c-0-0-0-0-0-0-0.157-0.157-0.34-0.27-0.535-0.343-0.533-0.199-1.157-0.086-1.586 0.343l-6.879 6.879c-0.429 0.429-0.542 1.052-0.343 1.586 0.073 0.195 0.186 0.378 0.343 0.535 0 0 0 0 0 0l14.562 14.562-14.562 14.562c-0 0-0 0-0 0-0.157 0.157-0.27 0.34-0.343 0.535-0.199 0.533-0.086 1.157 0.343 1.586l6.879 6.879c0.429 0.429 1.052 0.542 1.586 0.343 0.195-0.073 0.378-0.186 0.535-0.343 0-0 0-0 0-0l14.562-14.562 14.562 14.562c0 0 0 0 0.001 0 0.157 0.157 0.34 0.27 0.535 0.343 0.533 0.199 1.157 0.086 1.586-0.343l6.879-6.879c0.429-0.429 0.542-1.053 0.343-1.586-0.073-0.195-0.186-0.378-0.343-0.535z"></path>
</svg>
