<?xml version="1.0" encoding="utf-8"?>
<!-- Generated by IcoMoon.io -->
<!DOCTYPE svg PUBLIC "-//W3C//DTD SVG 1.1//EN" "http://www.w3.org/Graphics/SVG/1.1/DTD/svg11.dtd">
<svg version="1.1" xmlns="http://www.w3.org/2000/svg" xmlns:xlink="http://www.w3.org/1999/xlink" width="32" height="32" viewBox="0 0 32 32">
<rect fill="#ffffff" x="0" y="0" width="32" height="32"></rect>
<path fill="#444444" d="M28.143 3.882h-6.414v-1.283c0-1.417-1.149-2.565-2.565-2.565h-6.414c-1.417 0-2.566 1.149-2.566 2.565v1.283h-6.414v1.283h1.32l1.285 24.373c0 1.417 1.149 2.566 2.566 2.566h14.111c1.417 0 2.565-1.149 2.565-2.566l1.26-24.373h1.265v-1.283zM11.467 2.599c0-0.708 0.575-1.283 1.283-1.283h6.414c0.708 0 1.283 0.575 1.283 1.283v1.283h-8.979v-1.283zM24.336 29.471l-0.001 0.033v0.034c0 0.708-0.575 1.283-1.283 1.283h-14.111c-0.708 0-1.283-0.575-1.283-1.283v-0.034l-0.001-0.034-1.282-24.305h19.219l-1.259 24.306z"></path>
<path fill="#444444" d="M15.315 7.73h1.283v20.524h-1.283v-20.524z"></path>
<path fill="#444444" d="M12.778 28.213l-1.313-20.484-1.28 0.083 1.313 20.484z"></path>
<path fill="#444444" d="M21.738 7.77l-1.28-0.080-1.294 20.524 1.28 0.080z"></path>
</svg>
