<?xml version="1.0" encoding="utf-8"?>
<!-- Generated by IcoMoon.io -->
<!DOCTYPE svg PUBLIC "-//W3C//DTD SVG 1.1//EN" "http://www.w3.org/Graphics/SVG/1.1/DTD/svg11.dtd">
<svg version="1.1" xmlns="http://www.w3.org/2000/svg" xmlns:xlink="http://www.w3.org/1999/xlink" width="48" height="48" viewBox="0 0 48 48">
<rect fill="#ffffff" x="0" y="0" width="48" height="48"></rect>
<path fill="#444444" d="M31.109 9.069v-1.583c0-1.749-1.418-3.167-3.166-3.167h-7.917c-1.749 0-3.167 1.418-3.167 3.167v1.583h-7.916v1.583h1.63l1.586 30.083c0 1.749 1.418 3.167 3.166 3.167h17.416c1.749 0 3.167-1.418 3.167-3.167l1.555-30.083h1.562v-1.583h-7.917zM18.442 7.486c0-0.874 0.71-1.583 1.583-1.583h7.917c0.874 0 1.583 0.71 1.583 1.583v1.583h-11.083v-1.583zM18.481 39.203l-1.62-25.283 1.58-0.102 1.62 25.283-1.58 0.102zM24.776 39.152h-1.583v-25.333h1.583v25.333zM29.522 39.201l-1.58-0.099 1.597-25.333 1.58 0.099-1.597 25.333z"></path>
</svg>
