<?xml version="1.0" encoding="utf-8"?>
<!-- Generated by IcoMoon.io -->
<!DOCTYPE svg PUBLIC "-//W3C//DTD SVG 1.1//EN" "http://www.w3.org/Graphics/SVG/1.1/DTD/svg11.dtd">
<svg version="1.1" xmlns="http://www.w3.org/2000/svg" xmlns:xlink="http://www.w3.org/1999/xlink" width="32" height="32" viewBox="0 0 32 32">
<rect fill="#ffffff" x="0" y="0" width="32" height="32"></rect>
<path fill="#444444" d="M26.667 17.333h-21.333c-0.733 0-1.333 0.6-1.333 1.333v8c0 0.733 0.6 1.333 1.333 1.333h21.333c0.733 0 1.333-0.6 1.333-1.333v-8c0-0.733-0.6-1.333-1.333-1.333zM9.333 25.333c-1.467 0-2.667-1.2-2.667-2.667s1.2-2.667 2.667-2.667 2.667 1.2 2.667 2.667-1.2 2.667-2.667 2.667zM26.667 4h-21.333c-0.733 0-1.333 0.6-1.333 1.333v8c0 0.733 0.6 1.333 1.333 1.333h21.333c0.733 0 1.333-0.6 1.333-1.333v-8c0-0.733-0.6-1.333-1.333-1.333zM9.333 12c-1.467 0-2.667-1.2-2.667-2.667s1.2-2.667 2.667-2.667 2.667 1.2 2.667 2.667-1.2 2.667-2.667 2.667z"></path>
</svg>
