<?xml version="1.0" encoding="utf-8"?>
<!-- Generated by IcoMoon.io -->
<!DOCTYPE svg PUBLIC "-//W3C//DTD SVG 1.1//EN" "http://www.w3.org/Graphics/SVG/1.1/DTD/svg11.dtd">
<svg version="1.1" xmlns="http://www.w3.org/2000/svg" xmlns:xlink="http://www.w3.org/1999/xlink" width="48" height="48" viewBox="0 0 48 48">
<rect fill="#ffffff" x="0" y="0" width="48" height="48"></rect>
<path fill="#444444" d="M47.671 23.063l-12-15c-0.285-0.356-0.716-0.563-1.171-0.563h-21c-0.456 0-0.887 0.207-1.171 0.563l-12 15c-0.213 0.266-0.329 0.596-0.329 0.937v13.5c0 1.657 1.343 3 3 3h42c1.657 0 3-1.343 3-3v-13.5c0-0.341-0.116-0.671-0.329-0.937zM45 25.5h-10.5l-6 6h-9l-6-6h-10.5v-0.974l11.221-14.026h19.558l11.221 14.026v0.974z"></path>
<path fill="#444444" d="M34.5 16.5h-21c-0.828 0-1.5-0.672-1.5-1.5s0.672-1.5 1.5-1.5h21c0.828 0 1.5 0.672 1.5 1.5s-0.672 1.5-1.5 1.5z"></path>
<path fill="#444444" d="M37.5 22.5h-27c-0.828 0-1.5-0.672-1.5-1.5s0.672-1.5 1.5-1.5h27c0.828 0 1.5 0.672 1.5 1.5s-0.672 1.5-1.5 1.5z"></path>
</svg>
