<?xml version="1.0" encoding="utf-8"?>
<!-- Generated by IcoMoon.io -->
<!DOCTYPE svg PUBLIC "-//W3C//DTD SVG 1.1//EN" "http://www.w3.org/Graphics/SVG/1.1/DTD/svg11.dtd">
<svg version="1.1" xmlns="http://www.w3.org/2000/svg" xmlns:xlink="http://www.w3.org/1999/xlink" width="32" height="32" viewBox="0 0 32 32">
<rect fill="#ffffff" x="0" y="0" width="32" height="32"></rect>
<path fill="#444444" d="M28.296 7.628h-25.43v16.965h26.509v-16.965h-1.079zM27.236 8.689l-10.241 10.241c-0.466 0.467-1.282 0.467-1.748 0l-10.243-10.241h22.232zM3.927 9.111l6.885 6.883-6.885 6.885v-13.768zM4.772 23.533l6.791-6.789 2.934 2.935c0.433 0.434 1.011 0.673 1.624 0.673s1.191-0.239 1.624-0.673l2.935-2.935 6.789 6.789h-22.696zM28.315 22.881l-6.886-6.886 6.886-6.886v13.772z"></path>
</svg>
