<?xml version="1.0" encoding="utf-8"?>
<!-- Generated by IcoMoon.io -->
<!DOCTYPE svg PUBLIC "-//W3C//DTD SVG 1.1//EN" "http://www.w3.org/Graphics/SVG/1.1/DTD/svg11.dtd">
<svg version="1.1" xmlns="http://www.w3.org/2000/svg" xmlns:xlink="http://www.w3.org/1999/xlink" width="48" height="48" viewBox="0 0 48 48">
<rect fill="#ffffff" x="0" y="0" width="48" height="48"></rect>
<path fill="#444444" d="M42.444 11.442h-38.144v25.448h39.763v-25.448h-1.619zM40.854 13.033l-15.361 15.362c-0.699 0.701-1.923 0.701-2.622 0l-15.365-15.361h33.348zM5.89 13.667l10.327 10.324-10.327 10.327v-20.652zM7.158 35.3l10.186-10.183 4.402 4.402c0.649 0.651 1.516 1.010 2.436 1.010s1.786-0.359 2.435-1.010l4.402-4.402 10.183 10.183h-34.044zM42.472 34.322l-10.329-10.329 10.329-10.329v20.658z"></path>
</svg>
