<?xml version="1.0" encoding="utf-8"?>
<!-- Generated by IcoMoon.io -->
<!DOCTYPE svg PUBLIC "-//W3C//DTD SVG 1.1//EN" "http://www.w3.org/Graphics/SVG/1.1/DTD/svg11.dtd">
<svg version="1.1" xmlns="http://www.w3.org/2000/svg" xmlns:xlink="http://www.w3.org/1999/xlink" width="48" height="48" viewBox="0 0 48 48">
<rect fill="#ffffff" x="0" y="0" width="48" height="48"></rect>
<path fill="#444444" d="M32.28 25c0 2-0.2 3.7-0.6 5.1s-0.96 2.54-1.66 3.4c-0.72 0.88-1.58 1.5-2.6 1.9s-2.14 0.6-3.4 0.6c-1.24 0-2.36-0.2-3.38-0.6s-1.9-1.020-2.62-1.9c-0.72-0.88-1.3-2.020-1.7-3.4-0.4-1.4-0.6-3.1-0.6-5.1v-4.080c0-2 0.2-3.7 0.6-5.1s0.96-2.52 1.68-3.38c0.72-0.86 1.6-1.48 2.62-1.86 1-0.38 2.14-0.58 3.38-0.58 1.26 0 2.38 0.2 3.4 0.58s1.9 1 2.62 1.86c0.72 0.86 1.28 1.98 1.68 3.38s0.6 3.080 0.6 5.1v4.080zM28.060 20.28c0-1.28-0.1-2.36-0.26-3.24-0.18-0.88-0.44-1.58-0.8-2.12-0.34-0.54-0.78-0.92-1.28-1.16-0.5-0.26-1.080-0.38-1.72-0.38s-1.22 0.12-1.72 0.36-0.94 0.62-1.28 1.16c-0.34 0.54-0.62 1.24-0.8 2.12s-0.26 1.96-0.26 3.24v5.34c0 1.28 0.1 2.36 0.28 3.24 0.18 0.9 0.46 1.62 0.8 2.18s0.78 0.96 1.28 1.22 1.080 0.38 1.74 0.38c0.66 0 1.24-0.12 1.74-0.38s0.92-0.66 1.26-1.22c0.34-0.56 0.6-1.28 0.78-2.18s0.26-1.98 0.26-3.24v-5.32z"></path>
</svg>
