<?xml version="1.0" encoding="utf-8"?>
<!-- Generated by IcoMoon.io -->
<!DOCTYPE svg PUBLIC "-//W3C//DTD SVG 1.1//EN" "http://www.w3.org/Graphics/SVG/1.1/DTD/svg11.dtd">
<svg version="1.1" xmlns="http://www.w3.org/2000/svg" xmlns:xlink="http://www.w3.org/1999/xlink" width="32" height="32" viewBox="0 0 32 32">
<rect fill="#ffffff" x="0" y="0" width="32" height="32"></rect>
<path fill="#444444" d="M21.52 16.667c0 1.333-0.133 2.467-0.4 3.4s-0.64 1.693-1.107 2.267c-0.48 0.587-1.053 1-1.733 1.267s-1.427 0.4-2.267 0.4c-0.827 0-1.573-0.133-2.253-0.4s-1.267-0.68-1.747-1.267c-0.48-0.587-0.867-1.347-1.133-2.267-0.267-0.933-0.4-2.067-0.4-3.4v-2.72c0-1.333 0.133-2.467 0.4-3.4s0.64-1.68 1.12-2.253c0.48-0.573 1.067-0.987 1.747-1.24 0.667-0.253 1.427-0.387 2.253-0.387 0.84 0 1.587 0.133 2.267 0.387s1.267 0.667 1.747 1.24c0.48 0.573 0.853 1.32 1.12 2.253s0.4 2.053 0.4 3.4v2.72zM18.707 13.52c0-0.853-0.067-1.573-0.173-2.16-0.12-0.587-0.293-1.053-0.533-1.413-0.227-0.36-0.52-0.613-0.853-0.773-0.333-0.173-0.72-0.253-1.147-0.253s-0.813 0.080-1.147 0.24-0.627 0.413-0.853 0.773c-0.227 0.36-0.413 0.827-0.533 1.413s-0.173 1.307-0.173 2.16v3.56c0 0.853 0.067 1.573 0.187 2.16 0.12 0.6 0.307 1.080 0.533 1.453s0.52 0.64 0.853 0.813 0.72 0.253 1.16 0.253c0.44 0 0.827-0.080 1.16-0.253s0.613-0.44 0.84-0.813c0.227-0.373 0.4-0.853 0.52-1.453s0.173-1.32 0.173-2.16v-3.547z"></path>
</svg>
