<?xml version="1.0" encoding="utf-8"?>
<!-- Generated by IcoMoon.io -->
<!DOCTYPE svg PUBLIC "-//W3C//DTD SVG 1.1//EN" "http://www.w3.org/Graphics/SVG/1.1/DTD/svg11.dtd">
<svg version="1.1" xmlns="http://www.w3.org/2000/svg" xmlns:xlink="http://www.w3.org/1999/xlink" width="48" height="48" viewBox="0 0 48 48">
<rect fill="#ffffff" x="0" y="0" width="48" height="48"></rect>
<path fill="#444444" d="M30.1 32.58l5.72-6.14c0.76-0.78 1.44-1.58 2.080-2.36s1.18-1.56 1.64-2.34c0.46-0.78 0.82-1.56 1.080-2.34s0.38-1.58 0.38-2.36c0-1.060-0.18-2.040-0.54-2.92s-0.88-1.62-1.56-2.22c-0.68-0.62-1.54-1.080-2.52-1.42-1.020-0.32-2.16-0.48-3.44-0.48-1.38 0-2.62 0.22-3.7 0.64s-2 1.020-2.72 1.76c-0.74 0.74-1.3 1.6-1.68 2.6-0.36 0.94-0.54 1.94-0.56 3h4.28c0.020-0.62 0.1-1.2 0.26-1.74 0.18-0.58 0.46-1.080 0.8-1.5 0.36-0.42 0.82-0.74 1.36-0.98s1.2-0.36 1.92-0.36c0.62 0 1.16 0.1 1.62 0.3s0.86 0.5 1.18 0.86c0.32 0.36 0.56 0.8 0.74 1.3 0.16 0.5 0.26 1.040 0.26 1.62 0 0.44-0.060 0.86-0.16 1.3-0.12 0.44-0.3 0.9-0.58 1.4s-0.64 1.060-1.12 1.66c-0.46 0.6-1.040 1.3-1.76 2.060l-8.34 9.1v2.98h17.26v-3.42h-11.9zM4 22v4h16v-4h-16z"></path>
</svg>
