<?xml version="1.0" encoding="utf-8"?>
<!-- Generated by IcoMoon.io -->
<!DOCTYPE svg PUBLIC "-//W3C//DTD SVG 1.1//EN" "http://www.w3.org/Graphics/SVG/1.1/DTD/svg11.dtd">
<svg version="1.1" xmlns="http://www.w3.org/2000/svg" xmlns:xlink="http://www.w3.org/1999/xlink" width="48" height="48" viewBox="0 0 48 48">
<rect fill="#ffffff" x="0" y="0" width="48" height="48"></rect>
<path fill="#444444" d="M6 10h-4v32c0 2.2 1.8 4 4 4h32v-4h-32v-32zM42 2h-28c-2.2 0-4 1.8-4 4v28c0 2.2 1.8 4 4 4h28c2.2 0 4-1.8 4-4v-28c0-2.2-1.8-4-4-4zM42 34h-28v-28h28v28zM26 30h4c2.2 0 4-1.78 4-4v-3c0-1.66-1.34-3-3-3 1.66 0 3-1.34 3-3v-3c0-2.22-1.8-4-4-4h-4c-2.2 0-4 1.78-4 4v3c0 1.66 1.34 3 3 3-1.66 0-3 1.34-3 3v3c0 2.22 1.8 4 4 4zM26 14h4v4h-4v-4zM26 22h4v4h-4v-4z"></path>
</svg>
