<?xml version="1.0" encoding="utf-8"?>
<!-- Generated by IcoMoon.io -->
<!DOCTYPE svg PUBLIC "-//W3C//DTD SVG 1.1//EN" "http://www.w3.org/Graphics/SVG/1.1/DTD/svg11.dtd">
<svg version="1.1" xmlns="http://www.w3.org/2000/svg" xmlns:xlink="http://www.w3.org/1999/xlink" width="32" height="32" viewBox="0 0 32 32">
<rect fill="#ffffff" x="0" y="0" width="32" height="32"></rect>
<path fill="#444444" d="M4 6.667h-2.667v21.333c0 1.473 1.193 2.667 2.667 2.667h21.333v-2.667h-21.333v-21.333zM28 1.333h-18.667c-1.473 0-2.667 1.193-2.667 2.667v18.667c0 1.473 1.193 2.667 2.667 2.667h18.667c1.473 0 2.667-1.193 2.667-2.667v-18.667c0-1.473-1.193-2.667-2.667-2.667zM28 22.667h-18.667v-18.667h18.667v18.667zM20 6.667h-2.667c-1.473 0-2.667 1.193-2.667 2.667v2.667c0 1.473 1.193 2.667 2.667 2.667h2.667v2.667h-5.333v2.667h5.333c1.473 0 2.667-1.193 2.667-2.667v-8c0-1.473-1.193-2.667-2.667-2.667zM20 12h-2.667v-2.667h2.667v2.667z"></path>
</svg>
