<?xml version="1.0" encoding="utf-8"?>
<!-- Generated by IcoMoon.io -->
<!DOCTYPE svg PUBLIC "-//W3C//DTD SVG 1.1//EN" "http://www.w3.org/Graphics/SVG/1.1/DTD/svg11.dtd">
<svg version="1.1" xmlns="http://www.w3.org/2000/svg" xmlns:xlink="http://www.w3.org/1999/xlink" width="48" height="48" viewBox="0 0 48 48">
<rect fill="#ffffff" x="0" y="0" width="48" height="48"></rect>
<path fill="#444444" d="M39.607 4.362c-0.033 0.011-3.408 1.168-8.745 1.168-2.72 0-5.311-0.553-7.815-1.085-2.531-0.54-5.15-1.098-7.923-1.098-5.529 0-7.403 1.188-7.601 1.323l-0.403 0.278v39.631h1.874v-17.92c0.747-0.293 2.573-0.811 6.129-0.811 2.575 0 4.984 0.514 7.533 1.056 2.599 0.556 5.287 1.127 8.205 1.127 5.681 0 9.219-1.219 9.367-1.272l0.626-0.222v-22.611l-1.249 0.436zM38.981 25.175c-1.212 0.331-4.115 0.981-8.119 0.981-2.72 0-5.311-0.551-7.815-1.085-2.531-0.54-5.15-1.098-7.923-1.098-3.036 0-4.969 0.357-6.129 0.705v-18.65c0.75-0.289 2.584-0.807 6.129-0.807 2.575 0 4.984 0.514 7.533 1.056 2.599 0.555 5.287 1.128 8.205 1.128 3.774 0 6.602-0.538 8.119-0.915l-0 18.687z"></path>
</svg>
