<?xml version="1.0" encoding="utf-8"?>
<!-- Generated by IcoMoon.io -->
<!DOCTYPE svg PUBLIC "-//W3C//DTD SVG 1.1//EN" "http://www.w3.org/Graphics/SVG/1.1/DTD/svg11.dtd">
<svg version="1.1" xmlns="http://www.w3.org/2000/svg" xmlns:xlink="http://www.w3.org/1999/xlink" width="32" height="32" viewBox="0 0 32 32">
<rect fill="#ffffff" x="0" y="0" width="32" height="32"></rect>
<path fill="#444444" d="M27.838 1.104c-0.025 0.008-2.585 0.886-6.633 0.886-2.063 0-4.029-0.419-5.928-0.823-1.92-0.41-3.907-0.833-6.010-0.833-4.194 0-5.615 0.901-5.765 1.004l-0.305 0.211v30.061h1.422v-13.593c0.567-0.222 1.952-0.615 4.649-0.615 1.953 0 3.78 0.39 5.714 0.801 1.971 0.422 4.011 0.855 6.224 0.855 4.309 0 6.993-0.925 7.105-0.965l0.475-0.168v-17.151l-0.947 0.33zM27.363 16.892c-0.919 0.251-3.121 0.744-6.159 0.744-2.063 0-4.029-0.418-5.928-0.823-1.92-0.41-3.907-0.833-6.010-0.833-2.303 0-3.769 0.271-4.649 0.534v-14.147c0.569-0.219 1.96-0.612 4.649-0.612 1.953 0 3.78 0.39 5.714 0.801 1.971 0.421 4.011 0.855 6.224 0.855 2.863 0 5.008-0.408 6.159-0.694l-0 14.174z"></path>
</svg>
