<?xml version="1.0" encoding="utf-8"?>
<!-- Generated by IcoMoon.io -->
<!DOCTYPE svg PUBLIC "-//W3C//DTD SVG 1.1//EN" "http://www.w3.org/Graphics/SVG/1.1/DTD/svg11.dtd">
<svg version="1.1" xmlns="http://www.w3.org/2000/svg" xmlns:xlink="http://www.w3.org/1999/xlink" width="32" height="32" viewBox="0 0 32 32">
<rect fill="#ffffff" x="0" y="0" width="32" height="32"></rect>
<path fill="#444444" d="M29.22 6.583h-16.686v-1.283c0-1.418-1.149-2.567-2.567-2.567h-6.418c-1.418 0-2.567 1.149-2.567 2.567v21.821c0 1.416 1.149 2.567 2.567 2.567h25.671c1.418 0 2.567-1.151 2.567-2.567v-17.97c0-1.418-1.149-2.567-2.567-2.567zM2.266 5.3c0-0.708 0.577-1.284 1.284-1.284h6.418c0.707 0 1.284 0.575 1.284 1.284v2.567h17.969c0.707 0 1.283 0.575 1.283 1.283v1.284h-28.238v-5.134zM29.22 28.404h-25.671c-0.707 0-1.284-0.577-1.284-1.284v-15.403h28.238v15.403c0 0.707-0.577 1.284-1.283 1.284z"></path>
</svg>
