<?xml version="1.0" encoding="utf-8"?>
<!-- Generated by IcoMoon.io -->
<!DOCTYPE svg PUBLIC "-//W3C//DTD SVG 1.1//EN" "http://www.w3.org/Graphics/SVG/1.1/DTD/svg11.dtd">
<svg version="1.1" xmlns="http://www.w3.org/2000/svg" xmlns:xlink="http://www.w3.org/1999/xlink" width="32" height="32" viewBox="0 0 32 32">
<rect fill="#ffffff" x="0" y="0" width="32" height="32"></rect>
<path fill="#444444" d="M28.444 7.111h-10.667l-3.556-3.556h-10.667c-0.978 0-1.778 0.8-1.778 1.778v21.333c0 0.978 0.8 1.778 1.778 1.778h24.889c0.978 0 1.778-0.8 1.778-1.778v-17.778c0-0.978-0.8-1.778-1.778-1.778zM20.444 12c1.724 0 3.111 1.387 3.111 3.111s-1.387 3.111-3.111 3.111-3.111-1.387-3.111-3.111 1.387-3.111 3.111-3.111zM26.667 24.889h-12.444v-2.222c0-2.080 4.142-3.111 6.222-3.111s6.222 1.031 6.222 3.111v2.222z"></path>
</svg>
