<?xml version="1.0" encoding="utf-8"?>
<!-- Generated by IcoMoon.io -->
<!DOCTYPE svg PUBLIC "-//W3C//DTD SVG 1.1//EN" "http://www.w3.org/Graphics/SVG/1.1/DTD/svg11.dtd">
<svg version="1.1" xmlns="http://www.w3.org/2000/svg" xmlns:xlink="http://www.w3.org/1999/xlink" width="48" height="48" viewBox="0 0 48 48">
<rect fill="#ffffff" x="0" y="0" width="48" height="48"></rect>
<path fill="#444444" d="M24 21.333c2.96 0 5.333-2.4 5.333-5.333s-2.373-5.333-5.333-5.333c-2.933 0-5.333 2.4-5.333 5.333s2.4 5.333 5.333 5.333zM34.667 21.333c2.96 0 5.333-2.4 5.333-5.333s-2.373-5.333-5.333-5.333c-0.96 0-1.84 0.267-2.613 0.72 0.8 1.36 1.28 2.933 1.28 4.613s-0.48 3.253-1.28 4.613c0.773 0.453 1.68 0.72 2.613 0.72zM24 24.533c-4.453 0-13.333 2.213-13.333 6.667v3.467h26.667v-3.467c0-4.453-8.88-6.667-13.333-6.667zM13.333 18.667h-5.333v-5.333h-2.667v5.333h-5.333v2.667h5.333v5.333h2.667v-5.333h5.333v-2.667zM37.947 24.827c2 1.6 3.387 3.68 3.387 6.373v3.467h6.667v-3.467c0-3.493-5.52-5.627-10.053-6.373z"></path>
</svg>
