<?xml version="1.0" encoding="utf-8"?>
<!-- Generated by IcoMoon.io -->
<!DOCTYPE svg PUBLIC "-//W3C//DTD SVG 1.1//EN" "http://www.w3.org/Graphics/SVG/1.1/DTD/svg11.dtd">
<svg version="1.1" xmlns="http://www.w3.org/2000/svg" xmlns:xlink="http://www.w3.org/1999/xlink" width="32" height="32" viewBox="0 0 32 32">
<rect fill="#ffffff" x="0" y="0" width="32" height="32"></rect>
<path fill="#444444" d="M10.667 14.222c1.973 0 3.556-1.6 3.556-3.556s-1.582-3.556-3.556-3.556c-1.956 0-3.556 1.6-3.556 3.556s1.6 3.556 3.556 3.556zM21.333 14.222c1.973 0 3.556-1.6 3.556-3.556s-1.582-3.556-3.556-3.556c-1.973 0-3.556 1.6-3.556 3.556s1.6 3.556 3.556 3.556zM10.667 16.356c-2.969 0-8.889 1.476-8.889 4.444v2.311h17.778v-2.311c0-2.969-5.92-4.444-8.889-4.444zM21.333 16.356c-0.444 0-0.96 0.036-1.493 0.107 1.404 1.067 2.382 2.489 2.382 4.338v2.311h8v-2.311c0-2.969-5.92-4.444-8.889-4.444z"></path>
</svg>
