<?xml version="1.0" encoding="utf-8"?>
<!-- Generated by IcoMoon.io -->
<!DOCTYPE svg PUBLIC "-//W3C//DTD SVG 1.1//EN" "http://www.w3.org/Graphics/SVG/1.1/DTD/svg11.dtd">
<svg version="1.1" xmlns="http://www.w3.org/2000/svg" xmlns:xlink="http://www.w3.org/1999/xlink" width="32" height="32" viewBox="0 0 32 32">
<rect fill="#ffffff" x="0" y="0" width="32" height="32"></rect>
<path fill="#444444" d="M9.932 13.977c2.245 0 4.045-1.82 4.045-4.045s-1.8-4.045-4.045-4.045c-2.225 0-4.045 1.82-4.045 4.045s1.82 4.045 4.045 4.045zM22.068 13.977c2.245 0 4.045-1.82 4.045-4.045s-1.8-4.045-4.045-4.045c-2.245 0-4.045 1.82-4.045 4.045s1.82 4.045 4.045 4.045zM9.932 16.405c-3.378 0-10.114 1.679-10.114 5.057v2.63h20.227v-2.63c0-3.378-6.736-5.057-10.114-5.057zM22.068 16.405c-0.506 0-1.092 0.040-1.699 0.121 1.598 1.214 2.71 2.832 2.71 4.935v2.63h9.102v-2.63c0-3.378-6.736-5.057-10.114-5.057z"></path>
</svg>
