<?xml version="1.0" encoding="utf-8"?>
<!-- Generated by IcoMoon.io -->
<!DOCTYPE svg PUBLIC "-//W3C//DTD SVG 1.1//EN" "http://www.w3.org/Graphics/SVG/1.1/DTD/svg11.dtd">
<svg version="1.1" xmlns="http://www.w3.org/2000/svg" xmlns:xlink="http://www.w3.org/1999/xlink" width="48" height="48" viewBox="0 0 48 48">
<rect fill="#ffffff" x="0" y="0" width="48" height="48"></rect>
<path fill="#444444" d="M22 36h4v-4h-4v4zM24 4c-11.040 0-20 8.96-20 20s8.96 20 20 20 20-8.96 20-20-8.96-20-20-20zM24 40c-8.82 0-16-7.18-16-16s7.18-16 16-16 16 7.18 16 16-7.18 16-16 16zM24 12c-4.42 0-8 3.58-8 8h4c0-2.2 1.8-4 4-4s4 1.8 4 4c0 4-6 3.5-6 10h4c0-4.5 6-5 6-10 0-4.42-3.58-8-8-8z"></path>
</svg>
