<?xml version="1.0" encoding="utf-8"?>
<!-- Generated by IcoMoon.io -->
<!DOCTYPE svg PUBLIC "-//W3C//DTD SVG 1.1//EN" "http://www.w3.org/Graphics/SVG/1.1/DTD/svg11.dtd">
<svg version="1.1" xmlns="http://www.w3.org/2000/svg" xmlns:xlink="http://www.w3.org/1999/xlink" width="48" height="48" viewBox="0 0 48 48">
<rect fill="#ffffff" x="0" y="0" width="48" height="48"></rect>
<path fill="#444444" d="M24 4c-11.040 0-20 8.96-20 20s8.96 20 20 20 20-8.96 20-20-8.96-20-20-20zM26 38h-4v-4h4v4zM30.14 22.5l-1.8 1.84c-1.44 1.46-2.34 2.66-2.34 5.66h-4v-1c0-2.2 0.9-4.2 2.34-5.66l2.48-2.52c0.74-0.72 1.18-1.72 1.18-2.82 0-2.2-1.8-4-4-4s-4 1.8-4 4h-4c0-4.42 3.58-8 8-8s8 3.58 8 8c0 1.76-0.72 3.36-1.86 4.5z"></path>
</svg>
