<?xml version="1.0" encoding="utf-8"?>
<!-- Generated by IcoMoon.io -->
<!DOCTYPE svg PUBLIC "-//W3C//DTD SVG 1.1//EN" "http://www.w3.org/Graphics/SVG/1.1/DTD/svg11.dtd">
<svg version="1.1" xmlns="http://www.w3.org/2000/svg" xmlns:xlink="http://www.w3.org/1999/xlink" width="32" height="32" viewBox="0 0 32 32">
<rect fill="#ffffff" x="0" y="0" width="32" height="32"></rect>
<path fill="#444444" d="M16 2.667c-7.36 0-13.333 5.973-13.333 13.333s5.973 13.333 13.333 13.333 13.333-5.973 13.333-13.333-5.973-13.333-13.333-13.333zM17.333 25.333h-2.667v-2.667h2.667v2.667zM20.093 15l-1.2 1.227c-0.96 0.973-1.56 1.773-1.56 3.773h-2.667v-0.667c0-1.467 0.6-2.8 1.56-3.773l1.653-1.68c0.493-0.48 0.787-1.147 0.787-1.88 0-1.467-1.2-2.667-2.667-2.667s-2.667 1.2-2.667 2.667h-2.667c0-2.947 2.387-5.333 5.333-5.333s5.333 2.387 5.333 5.333c0 1.173-0.48 2.24-1.24 3z"></path>
</svg>
