<?xml version="1.0" encoding="utf-8"?>
<!-- Generated by IcoMoon.io -->
<!DOCTYPE svg PUBLIC "-//W3C//DTD SVG 1.1//EN" "http://www.w3.org/Graphics/SVG/1.1/DTD/svg11.dtd">
<svg version="1.1" xmlns="http://www.w3.org/2000/svg" xmlns:xlink="http://www.w3.org/1999/xlink" width="32" height="32" viewBox="0 0 32 32">
<rect fill="#ffffff" x="0" y="0" width="32" height="32"></rect>
<path fill="#444444" d="M19.453 10.667l-3.453 3.453-3.453-3.453-1.88 1.88 3.453 3.453-3.453 3.453 1.88 1.88 3.453-3.453 3.453 3.453 1.88-1.88-3.453-3.453 3.453-3.453-1.88-1.88zM16 2.667c-7.373 0-13.333 5.96-13.333 13.333s5.96 13.333 13.333 13.333 13.333-5.96 13.333-13.333-5.96-13.333-13.333-13.333zM16 26.667c-5.88 0-10.667-4.787-10.667-10.667s4.787-10.667 10.667-10.667 10.667 4.787 10.667 10.667-4.787 10.667-10.667 10.667z"></path>
</svg>
