<?xml version="1.0" encoding="utf-8"?>
<!-- Generated by IcoMoon.io -->
<!DOCTYPE svg PUBLIC "-//W3C//DTD SVG 1.1//EN" "http://www.w3.org/Graphics/SVG/1.1/DTD/svg11.dtd">
<svg version="1.1" xmlns="http://www.w3.org/2000/svg" xmlns:xlink="http://www.w3.org/1999/xlink" width="32" height="32" viewBox="0 0 32 32">
<rect fill="#ffffff" x="0" y="0" width="32" height="32"></rect>
<path fill="#444444" d="M6 14.667h-2.667v-2.667h-2v8h2v-3.333h2.667v3.333h2v-8h-2v2.667zM9.333 14h2v6h2v-6h2v-2h-6v2zM16.667 14h2v6h2v-6h2v-2h-6v2zM28.667 12h-4.667v8h2v-2.667h2.667c1.067 0 2-0.933 2-2v-1.333c0-1.067-0.933-2-2-2zM28.667 15.333h-2.667v-1.333h2.667v1.333z"></path>
</svg>
