<?xml version="1.0" encoding="utf-8"?>
<!-- Generated by IcoMoon.io -->
<!DOCTYPE svg PUBLIC "-//W3C//DTD SVG 1.1//EN" "http://www.w3.org/Graphics/SVG/1.1/DTD/svg11.dtd">
<svg version="1.1" xmlns="http://www.w3.org/2000/svg" xmlns:xlink="http://www.w3.org/1999/xlink" width="48" height="48" viewBox="0 0 48 48">
<rect fill="#ffffff" x="0" y="0" width="48" height="48"></rect>
<path fill="#444444" d="M9 22h-4v-4h-3v12h3v-5h4v5h3v-12h-3v4zM14 21h3v9h3v-9h3v-3h-9v3zM25 21h3v9h3v-9h3v-3h-9v3zM43 18h-7v12h3v-4h4c1.6 0 3-1.4 3-3v-2c0-1.6-1.4-3-3-3zM43 23h-4v-2h4v2z"></path>
</svg>
