<?xml version="1.0" encoding="utf-8"?>
<!-- Generated by IcoMoon.io -->
<!DOCTYPE svg PUBLIC "-//W3C//DTD SVG 1.1//EN" "http://www.w3.org/Graphics/SVG/1.1/DTD/svg11.dtd">
<svg version="1.1" xmlns="http://www.w3.org/2000/svg" xmlns:xlink="http://www.w3.org/1999/xlink" width="32" height="32" viewBox="0 0 32 32">
<rect fill="#ffffff" x="0" y="0" width="32" height="32"></rect>
<path fill="#444444" d="M25.333 4h-18.68c-1.467 0-2.64 1.2-2.64 2.667l-0.013 18.667c0 1.467 1.187 2.667 2.653 2.667h18.68c1.467 0 2.667-1.2 2.667-2.667v-18.667c0-1.467-1.2-2.667-2.667-2.667zM25.333 20h-5.333c0 2.213-1.787 4-4 4s-4-1.787-4-4h-5.347v-13.333h18.68v13.333zM21.333 13.333h-2.667v-4h-5.333v4h-2.667l5.333 5.333 5.333-5.333z"></path>
</svg>
