<?xml version="1.0" encoding="utf-8"?>
<!-- Generated by IcoMoon.io -->
<!DOCTYPE svg PUBLIC "-//W3C//DTD SVG 1.1//EN" "http://www.w3.org/Graphics/SVG/1.1/DTD/svg11.dtd">
<svg version="1.1" xmlns="http://www.w3.org/2000/svg" xmlns:xlink="http://www.w3.org/1999/xlink" width="48" height="48" viewBox="0 0 48 48">
<rect fill="#ffffff" x="0" y="0" width="48" height="48"></rect>
<path fill="#444444" d="M38 6h-28.020c-2.2 0-3.96 1.8-3.96 4l-0.020 28c0 2.2 1.78 4 3.98 4h28.020c2.2 0 4-1.8 4-4v-28c0-2.2-1.8-4-4-4zM38 30h-8c0 3.32-2.68 6-6 6s-6-2.68-6-6h-8.020v-20h28.020v20zM32 20h-4v-6h-8v6h-4l8 8 8-8z"></path>
</svg>
