<?xml version="1.0" encoding="utf-8"?>
<!-- Generated by IcoMoon.io -->
<!DOCTYPE svg PUBLIC "-//W3C//DTD SVG 1.1//EN" "http://www.w3.org/Graphics/SVG/1.1/DTD/svg11.dtd">
<svg version="1.1" xmlns="http://www.w3.org/2000/svg" xmlns:xlink="http://www.w3.org/1999/xlink" width="32" height="32" viewBox="0 0 32 32">
<rect fill="#ffffff" x="0" y="0" width="32" height="32"></rect>
<path fill="#444444" d="M16.010 10.268c1.064 0 1.927-0.863 1.927-1.928 0-1.065-0.863-1.928-1.927-1.928s-1.928 0.862-1.928 1.928c0 1.064 0.863 1.928 1.928 1.928z"></path>
<path fill="#444444" d="M17.937 12.838v-1.285h-3.855v1.285h1.285v10.28h-1.285v1.285h5.14v-1.285h-1.285z"></path>
<path fill="#444444" d="M16.010-0.012c-8.871 0-16.063 7.191-16.063 16.063s7.192 16.063 16.063 16.063c8.871 0 16.062-7.191 16.062-16.063s-7.192-16.063-16.063-16.063zM16.010 30.828c-8.149 0-14.777-6.63-14.777-14.777s6.628-14.777 14.777-14.777c8.149 0 14.777 6.63 14.777 14.777s-6.628 14.777-14.777 14.777z"></path>
</svg>
