<?xml version="1.0" encoding="utf-8"?>
<!-- Generated by IcoMoon.io -->
<!DOCTYPE svg PUBLIC "-//W3C//DTD SVG 1.1//EN" "http://www.w3.org/Graphics/SVG/1.1/DTD/svg11.dtd">
<svg version="1.1" xmlns="http://www.w3.org/2000/svg" xmlns:xlink="http://www.w3.org/1999/xlink" width="48" height="48" viewBox="0 0 48 48">
<rect fill="#ffffff" x="0" y="0" width="48" height="48"></rect>
<path fill="#444444" d="M23.98 4c-11.040 0-19.98 8.96-19.98 20s8.94 20 19.98 20c11.060 0 20.020-8.96 20.020-20s-8.96-20-20.020-20zM37.84 16h-5.9c-0.64-2.5-1.56-4.9-2.76-7.12 3.68 1.26 6.74 3.82 8.66 7.12zM24 8.080c1.66 2.4 2.96 5.060 3.82 7.92h-7.64c0.86-2.86 2.16-5.52 3.82-7.92zM8.52 28c-0.32-1.28-0.52-2.62-0.52-4s0.2-2.72 0.52-4h6.76c-0.16 1.32-0.28 2.64-0.28 4s0.12 2.68 0.28 4h-6.76zM10.16 32h5.9c0.64 2.5 1.56 4.9 2.76 7.12-3.68-1.26-6.74-3.8-8.66-7.12zM16.060 16h-5.9c1.92-3.32 4.98-5.86 8.66-7.12-1.2 2.22-2.12 4.62-2.76 7.12zM24 39.92c-1.66-2.4-2.96-5.060-3.82-7.92h7.64c-0.86 2.86-2.16 5.52-3.82 7.92zM28.68 28h-9.36c-0.18-1.32-0.32-2.64-0.32-4s0.14-2.7 0.32-4h9.36c0.18 1.3 0.32 2.64 0.32 4s-0.14 2.68-0.32 4zM29.18 39.12c1.2-2.22 2.12-4.62 2.76-7.12h5.9c-1.92 3.3-4.98 5.86-8.66 7.12zM32.72 28c0.16-1.32 0.28-2.64 0.28-4s-0.12-2.68-0.28-4h6.76c0.32 1.28 0.52 2.62 0.52 4s-0.2 2.72-0.52 4h-6.76z"></path>
</svg>
