<?xml version="1.0" encoding="utf-8"?>
<!-- Generated by IcoMoon.io -->
<!DOCTYPE svg PUBLIC "-//W3C//DTD SVG 1.1//EN" "http://www.w3.org/Graphics/SVG/1.1/DTD/svg11.dtd">
<svg version="1.1" xmlns="http://www.w3.org/2000/svg" xmlns:xlink="http://www.w3.org/1999/xlink" width="48" height="48" viewBox="0 0 48 48">
<rect fill="#ffffff" x="0" y="0" width="48" height="48"></rect>
<path fill="#444444" d="M7.8 24c0-3.42 2.78-6.2 6.2-6.2h8v-3.8h-8c-5.52 0-10 4.48-10 10s4.48 10 10 10h8v-3.8h-8c-3.42 0-6.2-2.78-6.2-6.2zM16 26h16v-4h-16v4zM34 14h-8v3.8h8c3.42 0 6.2 2.78 6.2 6.2s-2.78 6.2-6.2 6.2h-8v3.8h8c5.52 0 10-4.48 10-10s-4.48-10-10-10z"></path>
</svg>
