<?xml version="1.0" encoding="utf-8"?>
<!-- Generated by IcoMoon.io -->
<!DOCTYPE svg PUBLIC "-//W3C//DTD SVG 1.1//EN" "http://www.w3.org/Graphics/SVG/1.1/DTD/svg11.dtd">
<svg version="1.1" xmlns="http://www.w3.org/2000/svg" xmlns:xlink="http://www.w3.org/1999/xlink" width="32" height="32" viewBox="0 0 32 32">
<rect fill="#ffffff" x="0" y="0" width="32" height="32"></rect>
<path fill="rgb(216, 41, 43)" d="M31.945 15.7c0-6.558-4.154-12.149-9.972-14.283 7.337 6.652 6.192 18.043 1.285 22.54 4.417-6.557 3.323-17.204-4.641-22.323-2.44 0.639-4.85 2.377-4.761 6.020 0.134 5.714 7.332 9.874 7.228 16.208-0.088 5.157-4.281 6.615-5.834 6.979 0.493 0.045 0.984 0.072 1.484 0.072 8.397 0 15.211-6.815 15.211-15.213z"></path>
<path fill="rgb(16, 124, 191)" d="M0.118 15.67c-0.186 6.555 3.809 12.257 9.56 14.554-7.145-6.848-5.681-18.205-0.645-22.563-4.602 6.435-3.809 17.11 4.012 22.443 2.454-0.569 4.909-2.235 4.928-5.887 0.020-5.71-7.050-10.070-6.775-16.398 0.231-5.158 4.468-6.492 6.027-6.812-0.485-0.064-0.979-0.103-1.476-0.115-8.397-0.235-15.401 6.385-15.631 14.778z"></path>
</svg>
