<?xml version="1.0" encoding="utf-8"?>
<!-- Generated by IcoMoon.io -->
<!DOCTYPE svg PUBLIC "-//W3C//DTD SVG 1.1//EN" "http://www.w3.org/Graphics/SVG/1.1/DTD/svg11.dtd">
<svg version="1.1" xmlns="http://www.w3.org/2000/svg" xmlns:xlink="http://www.w3.org/1999/xlink" width="48" height="48" viewBox="0 0 48 48">
<rect fill="#ffffff" x="0" y="0" width="48" height="48"></rect>
<path fill="#444444" d="M42.82 23.16l-18-18c-0.72-0.72-1.72-1.16-2.82-1.16h-14c-2.2 0-4 1.8-4 4v14c0 1.1 0.44 2.1 1.18 2.84l18 18c0.72 0.72 1.72 1.16 2.82 1.16s2.1-0.44 2.82-1.18l14-14c0.74-0.72 1.18-1.72 1.18-2.82s-0.46-2.12-1.18-2.84zM11 14c-1.66 0-3-1.34-3-3s1.34-3 3-3 3 1.34 3 3-1.34 3-3 3zM34.54 30.54l-8.54 8.54-8.54-8.54c-0.9-0.92-1.46-2.16-1.46-3.54 0-2.76 2.24-5 5-5 1.38 0 2.64 0.56 3.54 1.48l1.46 1.44 1.46-1.46c0.9-0.9 2.16-1.46 3.54-1.46 2.76 0 5 2.24 5 5 0 1.38-0.56 2.64-1.46 3.54z"></path>
</svg>
