<?xml version="1.0" encoding="utf-8"?>
<!-- Generated by IcoMoon.io -->
<!DOCTYPE svg PUBLIC "-//W3C//DTD SVG 1.1//EN" "http://www.w3.org/Graphics/SVG/1.1/DTD/svg11.dtd">
<svg version="1.1" xmlns="http://www.w3.org/2000/svg" xmlns:xlink="http://www.w3.org/1999/xlink" width="32" height="32" viewBox="0 0 32 32">
<rect fill="#ffffff" x="0" y="0" width="32" height="32"></rect>
<path fill="#444444" d="M28.547 15.44l-12-12c-0.48-0.48-1.147-0.773-1.88-0.773h-9.333c-1.467 0-2.667 1.2-2.667 2.667v9.333c0 0.733 0.293 1.4 0.787 1.893l12 12c0.48 0.48 1.147 0.773 1.88 0.773s1.4-0.293 1.88-0.787l9.333-9.333c0.493-0.48 0.787-1.147 0.787-1.88s-0.307-1.413-0.787-1.893zM7.333 9.333c-1.107 0-2-0.893-2-2s0.893-2 2-2 2 0.893 2 2-0.893 2-2 2zM23.027 20.36l-5.693 5.693-5.693-5.693c-0.6-0.613-0.973-1.44-0.973-2.36 0-1.84 1.493-3.333 3.333-3.333 0.92 0 1.76 0.373 2.36 0.987l0.973 0.96 0.973-0.973c0.6-0.6 1.44-0.973 2.36-0.973 1.84 0 3.333 1.493 3.333 3.333 0 0.92-0.373 1.76-0.973 2.36z"></path>
</svg>
