<?xml version="1.0" encoding="utf-8"?>
<!-- Generated by IcoMoon.io -->
<!DOCTYPE svg PUBLIC "-//W3C//DTD SVG 1.1//EN" "http://www.w3.org/Graphics/SVG/1.1/DTD/svg11.dtd">
<svg version="1.1" xmlns="http://www.w3.org/2000/svg" xmlns:xlink="http://www.w3.org/1999/xlink" width="32" height="32" viewBox="0 0 32 32">
<rect fill="#ffffff" x="0" y="0" width="32" height="32"></rect>
<path fill="#444444" d="M16.052 0.751c-8.356 0-15.129 6.773-15.129 15.129s6.773 15.129 15.129 15.129 15.129-6.773 15.129-15.129c0-8.356-6.773-15.129-15.129-15.129zM16.052 2.012c7.647 0 13.868 6.221 13.868 13.868 0 3.365-1.207 6.453-3.208 8.858-1.37-0.575-4.634-1.709-6.664-2.31-0.172-0.054-0.2-0.061-0.2-0.779 0-0.592 0.244-1.188 0.482-1.693 0.257-0.549 0.563-1.471 0.672-2.299 0.307-0.356 0.725-1.058 0.992-2.395 0.235-1.18 0.126-1.608-0.031-2.012-0.016-0.042-0.033-0.084-0.044-0.126-0.059-0.276 0.021-1.713 0.223-2.827 0.139-0.765-0.036-2.391-1.087-3.735-0.665-0.85-1.938-1.894-4.261-2.039l-1.274 0.001c-2.284 0.144-3.556 1.188-4.221 2.038-1.054 1.344-1.229 2.971-1.088 3.735 0.202 1.114 0.283 2.551 0.224 2.822-0.012 0.047-0.030 0.089-0.047 0.13-0.155 0.404-0.266 0.832-0.030 2.012 0.268 1.337 0.684 2.039 0.992 2.395 0.108 0.827 0.414 1.749 0.672 2.299 0.19 0.401 0.277 0.947 0.277 1.719 0 0.716-0.026 0.726-0.188 0.777-2.091 0.617-5.412 1.818-6.651 2.36-2.040-2.416-3.276-5.53-3.276-8.932 0-7.647 6.221-13.868 13.868-13.868zM6.375 25.795c1.419-0.579 4.245-1.587 6.104-2.137 1.081-0.34 1.081-1.251 1.081-1.982 0-0.606-0.041-1.5-0.396-2.256-0.244-0.518-0.522-1.406-0.582-2.1-0.015-0.163-0.091-0.313-0.214-0.421-0.177-0.155-0.542-0.729-0.773-1.884-0.182-0.914-0.106-1.113-0.030-1.308 0.032-0.081 0.062-0.162 0.086-0.255 0.153-0.553-0.017-2.371-0.201-3.38-0.080-0.438 0.021-1.684 0.841-2.733 0.736-0.939 1.849-1.463 3.268-1.554l1.196-0.001c1.459 0.092 2.572 0.616 3.307 1.555 0.82 1.049 0.92 2.295 0.841 2.733-0.183 1.008-0.352 2.827-0.202 3.378 0.026 0.094 0.057 0.175 0.089 0.256 0.074 0.194 0.153 0.394-0.031 1.308-0.231 1.155-0.595 1.729-0.774 1.884-0.122 0.108-0.198 0.259-0.212 0.421-0.061 0.694-0.34 1.582-0.584 2.1-0.28 0.593-0.601 1.384-0.601 2.23 0 0.731 0 1.641 1.093 1.986 1.779 0.526 4.621 1.502 6.123 2.093-2.508 2.482-5.953 4.020-9.751 4.020-3.762 0-7.175-1.512-9.677-3.953z"></path>
</svg>
