<?xml version="1.0" encoding="utf-8"?>
<!-- Generated by IcoMoon.io -->
<!DOCTYPE svg PUBLIC "-//W3C//DTD SVG 1.1//EN" "http://www.w3.org/Graphics/SVG/1.1/DTD/svg11.dtd">
<svg version="1.1" xmlns="http://www.w3.org/2000/svg" xmlns:xlink="http://www.w3.org/1999/xlink" width="32" height="32" viewBox="0 0 32 32">
<rect fill="#ffffff" x="0" y="0" width="32" height="32"></rect>
<path fill="#444444" d="M10.667 14.222c0.978 0 1.778-0.8 1.778-1.778s-0.8-1.778-1.778-1.778-1.778 0.8-1.778 1.778 0.8 1.778 1.778 1.778zM21.333 14.222c0.978 0 1.778-0.8 1.778-1.778s-0.8-1.778-1.778-1.778-1.778 0.8-1.778 1.778 0.8 1.778 1.778 1.778zM16 24c3.804 0 6.969-2.667 7.787-6.222h-15.573c0.818 3.556 3.982 6.222 7.787 6.222zM16 1.778c-7.876 0-14.222 6.364-14.222 14.222s6.347 14.222 14.222 14.222 14.222-6.364 14.222-14.222-6.364-14.222-14.222-14.222zM16 27.556c-6.382 0-11.556-5.173-11.556-11.556s5.173-11.556 11.556-11.556 11.556 5.173 11.556 11.556-5.173 11.556-11.556 11.556z"></path>
</svg>
