<?xml version="1.0" encoding="utf-8"?>
<!-- Generated by IcoMoon.io -->
<!DOCTYPE svg PUBLIC "-//W3C//DTD SVG 1.1//EN" "http://www.w3.org/Graphics/SVG/1.1/DTD/svg11.dtd">
<svg version="1.1" xmlns="http://www.w3.org/2000/svg" xmlns:xlink="http://www.w3.org/1999/xlink" width="32" height="32" viewBox="0 0 32 32">
<rect fill="#ffffff" x="0" y="0" width="32" height="32"></rect>
<path fill="#444444" d="M15.957 0.352c-8.624 0-15.615 6.992-15.615 15.615s6.991 15.615 15.615 15.615c8.623 0 15.616-6.991 15.616-15.615s-6.993-15.615-15.616-15.615zM25.073 11.737l-10.69 10.366c-0.183 0.177-0.417 0.265-0.653 0.265-0.24 0-0.48-0.093-0.662-0.276l-4.165-4.165c-0.366-0.366-0.366-0.959 0-1.325s0.959-0.366 1.325 0l3.513 3.513 10.026-9.724c0.371-0.36 0.964-0.351 1.325 0.021 0.361 0.371 0.351 0.964-0.020 1.325z"></path>
</svg>
