<?xml version="1.0" encoding="utf-8"?>
<!-- Generated by IcoMoon.io -->
<!DOCTYPE svg PUBLIC "-//W3C//DTD SVG 1.1//EN" "http://www.w3.org/Graphics/SVG/1.1/DTD/svg11.dtd">
<svg version="1.1" xmlns="http://www.w3.org/2000/svg" xmlns:xlink="http://www.w3.org/1999/xlink" width="48" height="48" viewBox="0 0 48 48">
<rect fill="#ffffff" x="0" y="0" width="48" height="48"></rect>
<path fill="#444444" d="M24.041 5.897c-9.967 0-18.047 8.080-18.047 18.047s8.080 18.047 18.047 18.047c9.967 0 18.047-8.080 18.047-18.047s-8.080-18.047-18.047-18.047zM24.041 40.547c-9.156 0-16.603-7.449-16.603-16.603s7.447-16.603 16.603-16.603c9.156 0 16.603 7.449 16.603 16.603s-7.447 16.603-16.603 16.603z"></path>
<path fill="#444444" d="M33.069 17.501l-11.588 11.238-4.061-4.061c-0.423-0.423-1.108-0.423-1.531 0s-0.423 1.108 0 1.531l4.814 4.814c0.212 0.211 0.488 0.319 0.765 0.319 0.272 0 0.543-0.101 0.754-0.306l12.354-11.98c0.429-0.417 0.44-1.103 0.024-1.531-0.417-0.43-1.103-0.44-1.531-0.024z"></path>
</svg>
