<?xml version="1.0" encoding="utf-8"?>
<!-- Generated by IcoMoon.io -->
<!DOCTYPE svg PUBLIC "-//W3C//DTD SVG 1.1//EN" "http://www.w3.org/Graphics/SVG/1.1/DTD/svg11.dtd">
<svg version="1.1" xmlns="http://www.w3.org/2000/svg" xmlns:xlink="http://www.w3.org/1999/xlink" width="32" height="32" viewBox="0 0 32 32">
<rect fill="#ffffff" x="0" y="0" width="32" height="32"></rect>
<path fill="#444444" d="M16.035 0.377c-8.601 0-15.575 6.973-15.575 15.575s6.973 15.575 15.575 15.575c8.601 0 15.575-6.973 15.575-15.575s-6.974-15.575-15.575-15.575zM16.035 30.281c-7.902 0-14.329-6.428-14.329-14.329s6.427-14.329 14.329-14.329c7.902 0 14.329 6.428 14.329 14.329s-6.427 14.329-14.329 14.329z"></path>
<path fill="#444444" d="M23.826 10.391l-10.001 9.699-3.504-3.504c-0.365-0.365-0.956-0.365-1.322 0s-0.365 0.956 0 1.321l4.154 4.154c0.183 0.183 0.421 0.275 0.661 0.275 0.235 0 0.469-0.088 0.651-0.264l10.662-10.339c0.37-0.36 0.38-0.952 0.021-1.322-0.36-0.371-0.952-0.38-1.321-0.021z"></path>
</svg>
