<?xml version="1.0" encoding="utf-8"?>
<!-- Generated by IcoMoon.io -->
<!DOCTYPE svg PUBLIC "-//W3C//DTD SVG 1.1//EN" "http://www.w3.org/Graphics/SVG/1.1/DTD/svg11.dtd">
<svg version="1.1" xmlns="http://www.w3.org/2000/svg" xmlns:xlink="http://www.w3.org/1999/xlink" width="32" height="32" viewBox="0 0 32 32">
<rect fill="#ffffff" x="0" y="0" width="32" height="32"></rect>
<path fill="#444444" d="M15.333 12c-1.84 0-3.333 1.493-3.333 3.333s1.493 3.333 3.333 3.333 3.333-1.493 3.333-3.333-1.493-3.333-3.333-3.333zM26.667 5.333h-21.333c-1.467 0-2.667 1.2-2.667 2.667v16c0 1.467 1.2 2.667 2.667 2.667h21.333c1.467 0 2.667-1.2 2.667-2.667v-16c0-1.467-1.2-2.667-2.667-2.667zM22.387 24.28l-3.88-3.88c-0.92 0.587-2.013 0.933-3.187 0.933-3.307 0-5.987-2.68-5.987-6s2.68-6 6-6 6 2.68 6 6c0 1.173-0.347 2.253-0.933 3.187l3.88 3.867-1.893 1.893z"></path>
</svg>
