<?xml version="1.0" encoding="utf-8"?>
<!-- Generated by IcoMoon.io -->
<!DOCTYPE svg PUBLIC "-//W3C//DTD SVG 1.1//EN" "http://www.w3.org/Graphics/SVG/1.1/DTD/svg11.dtd">
<svg version="1.1" xmlns="http://www.w3.org/2000/svg" xmlns:xlink="http://www.w3.org/1999/xlink" width="48" height="48" viewBox="0 0 48 48">
<rect fill="#ffffff" x="0" y="0" width="48" height="48"></rect>
<path fill="#444444" d="M31.211 15.33l-3.045-3.043-15.225 15.222c-2.523 2.522-2.523 6.612 0 9.133s6.612 2.522 9.135 0l18.271-18.268c4.205-4.203 4.205-11.019 0-15.222-4.203-4.205-11.021-4.205-15.224 0l-19.183 19.18c-0.014 0.014-0.029 0.027-0.041 0.040-5.864 5.864-5.864 15.368 0 21.23 5.862 5.862 15.369 5.862 21.234 0 0.013-0.013 0.024-0.027 0.038-0.041l0.002 0.002 13.094-13.092-3.046-3.043-13.094 13.090c-0.014 0.013-0.026 0.027-0.040 0.040-4.175 4.175-10.968 4.175-15.144 0-4.175-4.174-4.175-10.965 0-15.14 0.014-0.014 0.028-0.027 0.042-0.040l-0.002-0.003 19.185-19.18c2.518-2.519 6.616-2.519 9.135 0 2.518 2.519 2.518 6.616 0 9.133l-18.271 18.267c-0.841 0.84-2.206 0.84-3.046 0-0.839-0.838-0.839-2.205 0-3.043l15.225-15.224z"></path>
</svg>
