<?xml version="1.0" encoding="utf-8"?>
<!-- Generated by IcoMoon.io -->
<!DOCTYPE svg PUBLIC "-//W3C//DTD SVG 1.1//EN" "http://www.w3.org/Graphics/SVG/1.1/DTD/svg11.dtd">
<svg version="1.1" xmlns="http://www.w3.org/2000/svg" xmlns:xlink="http://www.w3.org/1999/xlink" width="48" height="48" viewBox="0 0 48 48">
<rect fill="#ffffff" x="0" y="0" width="48" height="48"></rect>
<path fill="#444444" d="M33 26c-2.4 0-6.14 0.68-9 2-2.86-1.34-6.6-2-9-2-4.34 0-13 2.16-13 6.5v5.5h44v-5.5c0-4.34-8.66-6.5-13-6.5zM25 35h-20v-2.5c0-1.080 5.12-3.5 10-3.5s10 2.42 10 3.5v2.5zM43 35h-15v-2.5c0-0.92-0.4-1.72-1.040-2.44 1.76-0.6 3.92-1.060 6.040-1.060 4.88 0 10 2.42 10 3.5v2.5zM15 24c3.86 0 7-3.14 7-7s-3.14-7-7-7-7 3.14-7 7 3.14 7 7 7zM15 13c2.2 0 4 1.8 4 4s-1.8 4-4 4-4-1.8-4-4 1.8-4 4-4zM33 24c3.86 0 7-3.14 7-7s-3.14-7-7-7-7 3.14-7 7 3.14 7 7 7zM33 13c2.2 0 4 1.8 4 4s-1.8 4-4 4-4-1.8-4-4 1.8-4 4-4z"></path>
</svg>
