<?xml version="1.0" encoding="utf-8"?>
<!-- Generated by IcoMoon.io -->
<!DOCTYPE svg PUBLIC "-//W3C//DTD SVG 1.1//EN" "http://www.w3.org/Graphics/SVG/1.1/DTD/svg11.dtd">
<svg version="1.1" xmlns="http://www.w3.org/2000/svg" xmlns:xlink="http://www.w3.org/1999/xlink" width="48" height="48" viewBox="0 0 48 48">
<rect fill="#ffffff" x="0" y="0" width="48" height="48"></rect>
<path fill="#444444" d="M16 21.333c2.96 0 5.333-2.4 5.333-5.333s-2.373-5.333-5.333-5.333c-2.933 0-5.333 2.4-5.333 5.333s2.4 5.333 5.333 5.333zM32 21.333c2.96 0 5.333-2.4 5.333-5.333s-2.373-5.333-5.333-5.333c-2.96 0-5.333 2.4-5.333 5.333s2.4 5.333 5.333 5.333zM16 24.533c-4.453 0-13.333 2.213-13.333 6.667v3.467h26.667v-3.467c0-4.453-8.88-6.667-13.333-6.667zM32 24.533c-0.667 0-1.44 0.053-2.24 0.16 2.107 1.6 3.573 3.733 3.573 6.507v3.467h12v-3.467c0-4.453-8.88-6.667-13.333-6.667z"></path>
</svg>
