<?xml version="1.0" encoding="utf-8"?>
<!-- Generated by IcoMoon.io -->
<!DOCTYPE svg PUBLIC "-//W3C//DTD SVG 1.1//EN" "http://www.w3.org/Graphics/SVG/1.1/DTD/svg11.dtd">
<svg version="1.1" xmlns="http://www.w3.org/2000/svg" xmlns:xlink="http://www.w3.org/1999/xlink" width="48" height="48" viewBox="0 0 48 48">
<rect fill="#ffffff" x="0" y="0" width="48" height="48"></rect>
<path fill="#444444" d="M38 6h-2v-4h-4v4h-16v-4h-4v4h-2c-2.22 0-4 1.8-4 4v28c0 2.2 1.78 4 4 4h28c2.2 0 4-1.8 4-4v-28c0-2.2-1.8-4-4-4zM24 12c3.32 0 6 2.68 6 6s-2.68 6-6 6-6-2.68-6-6 2.68-6 6-6zM36 36h-24v-2c0-4 8-6.2 12-6.2s12 2.2 12 6.2v2z"></path>
</svg>
