<?xml version="1.0" encoding="utf-8"?>
<!-- Generated by IcoMoon.io -->
<!DOCTYPE svg PUBLIC "-//W3C//DTD SVG 1.1//EN" "http://www.w3.org/Graphics/SVG/1.1/DTD/svg11.dtd">
<svg version="1.1" xmlns="http://www.w3.org/2000/svg" xmlns:xlink="http://www.w3.org/1999/xlink" width="32" height="32" viewBox="0 0 32 32">
<rect fill="#ffffff" x="0" y="0" width="32" height="32"></rect>
<path fill="#444444" d="M16 17.778c-4.142 0-12.444 2.080-12.444 6.222v4.444h24.889v-4.444c0-4.142-8.302-6.222-12.444-6.222zM25.404 25.404h-18.809v-1.404c0.178-0.871 4.604-3.182 9.404-3.182s9.227 2.311 9.404 3.182v1.404zM16 16c3.947 0 7.111-3.182 7.111-7.111s-3.164-7.111-7.111-7.111c-3.929 0-7.093 3.182-7.093 7.111s3.164 7.111 7.093 7.111zM16 4.818c2.24 0 4.053 1.831 4.053 4.071s-1.813 4.071-4.053 4.071c-2.222 0-4.053-1.831-4.053-4.071s1.831-4.071 4.053-4.071z"></path>
</svg>
