<?xml version="1.0" encoding="utf-8"?>
<!-- Generated by IcoMoon.io -->
<!DOCTYPE svg PUBLIC "-//W3C//DTD SVG 1.1//EN" "http://www.w3.org/Graphics/SVG/1.1/DTD/svg11.dtd">
<svg version="1.1" xmlns="http://www.w3.org/2000/svg" xmlns:xlink="http://www.w3.org/1999/xlink" width="32" height="32" viewBox="0 0 32 32">
<rect fill="#ffffff" x="0" y="0" width="32" height="32"></rect>
<path fill="#444444" d="M16 18.301c-5.362 0-16.11 2.693-16.11 8.055v5.754h32.22v-5.753c0-5.362-10.748-8.055-16.11-8.055zM28.174 28.174h-24.349v-1.818c0.23-1.128 5.961-4.12 12.174-4.12s11.944 2.992 12.174 4.12v1.818zM16 16c5.109 0 9.206-4.12 9.206-9.206s-4.096-9.206-9.206-9.206c-5.086 0-9.183 4.12-9.183 9.206s4.097 9.206 9.183 9.206zM16 1.524c2.9 0 5.247 2.37 5.247 5.27s-2.347 5.27-5.247 5.27c-2.877 0-5.247-2.37-5.247-5.27s2.37-5.27 5.247-5.27z"></path>
</svg>
