<?xml version="1.0" encoding="utf-8"?>
<!-- Generated by IcoMoon.io -->
<!DOCTYPE svg PUBLIC "-//W3C//DTD SVG 1.1//EN" "http://www.w3.org/Graphics/SVG/1.1/DTD/svg11.dtd">
<svg version="1.1" xmlns="http://www.w3.org/2000/svg" xmlns:xlink="http://www.w3.org/1999/xlink" width="48" height="48" viewBox="0 0 48 48">
<rect fill="#ffffff" x="0" y="0" width="48" height="48"></rect>
<path fill="#444444" d="M24 26.667c-6.213 0-18.667 3.12-18.667 9.333v6.667h37.333v-6.667c0-6.213-12.453-9.333-18.667-9.333zM38.107 38.107h-28.213v-2.107c0.267-1.307 6.907-4.773 14.107-4.773s13.84 3.467 14.107 4.773v2.107zM24 24c5.92 0 10.667-4.773 10.667-10.667s-4.747-10.667-10.667-10.667c-5.893 0-10.64 4.773-10.64 10.667s4.747 10.667 10.64 10.667zM24 7.227c3.36 0 6.080 2.747 6.080 6.107s-2.72 6.107-6.080 6.107c-3.333 0-6.080-2.747-6.080-6.107s2.747-6.107 6.080-6.107z"></path>
</svg>
