<?xml version="1.0" encoding="utf-8"?>
<!-- Generated by IcoMoon.io -->
<!DOCTYPE svg PUBLIC "-//W3C//DTD SVG 1.1//EN" "http://www.w3.org/Graphics/SVG/1.1/DTD/svg11.dtd">
<svg version="1.1" xmlns="http://www.w3.org/2000/svg" xmlns:xlink="http://www.w3.org/1999/xlink" width="32" height="32" viewBox="0 0 32 32">
<rect fill="#ffffff" x="0" y="0" width="32" height="32"></rect>
<path fill="#444444" d="M16 17.563c-3.641 0-10.938 1.828-10.938 5.469v3.906h21.875v-3.906c0-3.641-7.297-5.469-10.938-5.469zM24.266 24.266h-16.531v-1.234c0.156-0.766 4.047-2.797 8.266-2.797s8.109 2.031 8.266 2.797v1.234zM16 16c3.469 0 6.25-2.797 6.25-6.25s-2.781-6.25-6.25-6.25c-3.453 0-6.234 2.797-6.234 6.25s2.781 6.25 6.234 6.25zM16 6.172c1.969 0 3.563 1.609 3.563 3.578s-1.594 3.578-3.563 3.578c-1.953 0-3.563-1.609-3.563-3.578s1.609-3.578 3.563-3.578z"></path>
</svg>
