<?xml version="1.0" encoding="utf-8"?>
<!-- Generated by IcoMoon.io -->
<!DOCTYPE svg PUBLIC "-//W3C//DTD SVG 1.1//EN" "http://www.w3.org/Graphics/SVG/1.1/DTD/svg11.dtd">
<svg version="1.1" xmlns="http://www.w3.org/2000/svg" xmlns:xlink="http://www.w3.org/1999/xlink" width="32" height="32" viewBox="0 0 32 32">
<rect fill="#ffffff" x="0" y="0" width="32" height="32"></rect>
<path fill="#444444" d="M15.936 0.475c-8.579 0-15.533 6.953-15.533 15.533s6.953 15.533 15.533 15.533 15.533-6.953 15.533-15.533c0-8.579-6.953-15.533-15.533-15.533zM15.936 30.297c-7.879 0-14.29-6.411-14.29-14.29s6.411-14.29 14.29-14.29c7.879 0 14.29 6.411 14.29 14.29s-6.411 14.29-14.29 14.29z"></path>
<path fill="#444444" d="M16.558 6.688h-1.243v8.698h-8.657v1.243h8.657v8.657h1.243v-8.657h8.698v-1.243h-8.698z"></path>
</svg>
