<?xml version="1.0" encoding="utf-8"?>
<!-- Generated by IcoMoon.io -->
<!DOCTYPE svg PUBLIC "-//W3C//DTD SVG 1.1//EN" "http://www.w3.org/Graphics/SVG/1.1/DTD/svg11.dtd">
<svg version="1.1" xmlns="http://www.w3.org/2000/svg" xmlns:xlink="http://www.w3.org/1999/xlink" width="32" height="32" viewBox="0 0 32 32">
<rect fill="#ffffff" x="0" y="0" width="32" height="32"></rect>
<path fill="#444444" d="M25.333 10.667h-18.667c-2.213 0-4 1.787-4 4v8h5.333v5.333h16v-5.333h5.333v-8c0-2.213-1.787-4-4-4zM21.333 25.333h-10.667v-6.667h10.667v6.667zM25.333 16c-0.733 0-1.333-0.6-1.333-1.333s0.6-1.333 1.333-1.333 1.333 0.6 1.333 1.333-0.6 1.333-1.333 1.333zM24 4h-16v5.333h16v-5.333z"></path>
</svg>
