<?xml version="1.0" encoding="utf-8"?>
<!-- Generated by IcoMoon.io -->
<!DOCTYPE svg PUBLIC "-//W3C//DTD SVG 1.1//EN" "http://www.w3.org/Graphics/SVG/1.1/DTD/svg11.dtd">
<svg version="1.1" xmlns="http://www.w3.org/2000/svg" xmlns:xlink="http://www.w3.org/1999/xlink" width="48" height="48" viewBox="0 0 48 48">
<rect fill="#ffffff" x="0" y="0" width="48" height="48"></rect>
<path fill="#444444" d="M14.22 17.060l-2.82-2.84c-1.8 2.32-2.92 5-3.26 7.78h4.040c0.28-1.74 0.98-3.44 2.040-4.94zM12.18 26h-4.040c0.34 2.78 1.44 5.46 3.24 7.78l2.82-2.84c-1.040-1.5-1.74-3.18-2.020-4.94zM14.2 36.64c2.32 1.8 5.020 2.88 7.8 3.22v-4.060c-1.74-0.3-3.42-0.98-4.92-2.060l-2.88 2.9zM26 8.14v-6.14l-9.1 9.1 9.1 8.9v-7.82c5.68 0.96 10 5.88 10 11.82s-4.32 10.86-10 11.82v4.040c7.9-0.98 14-7.7 14-15.86s-6.1-14.88-14-15.86z"></path>
</svg>
