<?xml version="1.0" encoding="utf-8"?>
<!-- Generated by IcoMoon.io -->
<!DOCTYPE svg PUBLIC "-//W3C//DTD SVG 1.1//EN" "http://www.w3.org/Graphics/SVG/1.1/DTD/svg11.dtd">
<svg version="1.1" xmlns="http://www.w3.org/2000/svg" xmlns:xlink="http://www.w3.org/1999/xlink" width="48" height="48" viewBox="0 0 48 48">
<rect fill="#ffffff" x="0" y="0" width="48" height="48"></rect>
<path fill="#444444" d="M31.1 11.1l-9.1-9.1v6.14c-7.88 0.98-14 7.7-14 15.86s6.1 14.88 14 15.86v-4.040c-5.68-0.96-10-5.88-10-11.82s4.32-10.86 10-11.82v7.82l9.1-8.9zM39.86 22c-0.34-2.78-1.44-5.46-3.24-7.78l-2.84 2.84c1.080 1.5 1.76 3.2 2.040 4.94h4.040zM26 35.8v4.040c2.78-0.34 5.48-1.42 7.8-3.22l-2.88-2.88c-1.5 1.080-3.18 1.78-4.92 2.060zM33.78 30.96l2.84 2.82c1.8-2.32 2.9-5 3.24-7.78h-4.040c-0.28 1.74-0.96 3.44-2.040 4.96z"></path>
</svg>
