<?xml version="1.0" encoding="utf-8"?>
<!-- Generated by IcoMoon.io -->
<!DOCTYPE svg PUBLIC "-//W3C//DTD SVG 1.1//EN" "http://www.w3.org/Graphics/SVG/1.1/DTD/svg11.dtd">
<svg version="1.1" xmlns="http://www.w3.org/2000/svg" xmlns:xlink="http://www.w3.org/1999/xlink" width="48" height="48" viewBox="0 0 48 48">
<rect fill="#ffffff" x="0" y="0" width="48" height="48"></rect>
<path fill="#444444" d="M24 20c-2.2 0-4 1.8-4 4s1.8 4 4 4 4-1.8 4-4-1.8-4-4-4zM38 6h-28c-2.22 0-4 1.8-4 4v28c0 2.2 1.78 4 4 4h28c2.22 0 4-1.8 4-4v-28c0-2.2-1.78-4-4-4zM34.5 24c0 0.46-0.040 0.92-0.1 1.36l2.96 2.32c0.26 0.22 0.34 0.6 0.16 0.9l-2.8 4.84c-0.18 0.3-0.54 0.42-0.86 0.3l-3.48-1.4c-0.72 0.56-1.52 1.020-2.36 1.38l-0.52 3.7c-0.060 0.34-0.36 0.6-0.7 0.6h-5.6c-0.34 0-0.64-0.26-0.7-0.58l-0.52-3.7c-0.86-0.36-1.64-0.82-2.36-1.38l-3.48 1.4c-0.32 0.12-0.68 0-0.86-0.3l-2.8-4.84c-0.18-0.3-0.1-0.68 0.16-0.9l2.96-2.32c-0.060-0.46-0.1-0.92-0.1-1.38s0.040-0.92 0.1-1.36l-2.96-2.32c-0.26-0.22-0.34-0.6-0.16-0.9l2.8-4.84c0.18-0.3 0.54-0.42 0.86-0.3l3.48 1.4c0.72-0.56 1.52-1.020 2.36-1.38l0.52-3.7c0.060-0.34 0.36-0.6 0.7-0.6h5.6c0.34 0 0.64 0.26 0.7 0.58l0.52 3.7c0.86 0.36 1.64 0.82 2.36 1.38l3.48-1.4c0.32-0.12 0.68 0 0.86 0.3l2.8 4.84c0.18 0.3 0.1 0.68-0.16 0.9l-2.96 2.32c0.060 0.46 0.1 0.92 0.1 1.38z"></path>
</svg>
