<?xml version="1.0" encoding="utf-8"?>
<!-- Generated by IcoMoon.io -->
<!DOCTYPE svg PUBLIC "-//W3C//DTD SVG 1.1//EN" "http://www.w3.org/Graphics/SVG/1.1/DTD/svg11.dtd">
<svg version="1.1" xmlns="http://www.w3.org/2000/svg" xmlns:xlink="http://www.w3.org/1999/xlink" width="32" height="32" viewBox="0 0 32 32">
<rect fill="#ffffff" x="0" y="0" width="32" height="32"></rect>
<path fill="#444444" d="M25.102 22.189c-1.153 0-2.185 0.455-2.973 1.168l-10.816-6.296c0.076-0.349 0.137-0.698 0.137-1.062s-0.061-0.713-0.137-1.062l10.695-6.235c0.819 0.758 1.896 1.229 3.095 1.229 2.518 0 4.551-2.033 4.551-4.551s-2.033-4.551-4.551-4.551-4.551 2.033-4.551 4.551c0 0.364 0.061 0.713 0.137 1.062l-10.695 6.235c-0.819-0.758-1.896-1.229-3.095-1.229-2.518 0-4.551 2.033-4.551 4.551s2.033 4.551 4.551 4.551c1.198 0 2.276-0.47 3.095-1.229l10.801 6.311c-0.076 0.319-0.121 0.652-0.121 0.986 0 2.442 1.987 4.43 4.43 4.43s4.43-1.987 4.43-4.43-1.987-4.43-4.43-4.43z"></path>
</svg>
