<?xml version="1.0" encoding="utf-8"?>
<!-- Generated by IcoMoon.io -->
<!DOCTYPE svg PUBLIC "-//W3C//DTD SVG 1.1//EN" "http://www.w3.org/Graphics/SVG/1.1/DTD/svg11.dtd">
<svg version="1.1" xmlns="http://www.w3.org/2000/svg" xmlns:xlink="http://www.w3.org/1999/xlink" width="32" height="32" viewBox="0 0 32 32">
<rect fill="#ffffff" x="0" y="0" width="32" height="32"></rect>
<path fill="#444444" d="M26.809 1.234c-2.512 0-4.549 2.038-4.549 4.549 0 0.437 0.081 0.85 0.195 1.249l-13.329 5.587c-0.786-1.36-2.24-2.288-3.925-2.288-2.512 0-4.549 2.038-4.549 4.549 0 2.512 2.037 4.549 4.549 4.549 1.316 0 2.492-0.568 3.323-1.46l8.591 6.174c-0.334 0.633-0.542 1.343-0.542 2.109 0 2.513 2.037 4.55 4.549 4.55s4.549-2.037 4.549-4.55c0-2.511-2.037-4.548-4.549-4.548-1.336 0-2.526 0.586-3.358 1.504l-8.583-6.167c0.351-0.645 0.569-1.374 0.569-2.16 0-0.423-0.077-0.824-0.184-1.213l13.336-5.589c0.791 1.343 2.236 2.255 3.907 2.255 2.512 0 4.549-2.037 4.549-4.55-0-2.511-2.037-4.549-4.549-4.549zM5.202 18.292c-1.881 0-3.412-1.53-3.412-3.412s1.53-3.412 3.412-3.412c1.881 0 3.412 1.53 3.412 3.412s-1.53 3.412-3.412 3.412zM21.123 22.841c1.881 0 3.412 1.53 3.412 3.411s-1.53 3.413-3.412 3.413c-1.881 0-3.412-1.532-3.412-3.413s1.53-3.411 3.412-3.411zM26.809 9.196c-1.881 0-3.412-1.53-3.412-3.413 0-1.881 1.53-3.412 3.412-3.412s3.412 1.53 3.412 3.412c0 1.882-1.53 3.413-3.412 3.413z"></path>
</svg>
