<?xml version="1.0" encoding="utf-8"?>
<!-- Generated by IcoMoon.io -->
<!DOCTYPE svg PUBLIC "-//W3C//DTD SVG 1.1//EN" "http://www.w3.org/Graphics/SVG/1.1/DTD/svg11.dtd">
<svg version="1.1" xmlns="http://www.w3.org/2000/svg" xmlns:xlink="http://www.w3.org/1999/xlink" width="32" height="32" viewBox="0 0 32 32">
<rect fill="#ffffff" x="0" y="0" width="32" height="32"></rect>
<path fill="#444444" d="M9.333 24c-1.467 0-2.653 1.2-2.653 2.667s1.187 2.667 2.653 2.667 2.667-1.2 2.667-2.667-1.2-2.667-2.667-2.667zM1.333 2.667v2.667h2.667l4.8 10.12-1.8 3.267c-0.213 0.373-0.333 0.813-0.333 1.28 0 1.467 1.2 2.667 2.667 2.667h16v-2.667h-15.44c-0.187 0-0.333-0.147-0.333-0.333l0.040-0.16 1.2-2.173h9.933c1 0 1.88-0.547 2.333-1.373l4.773-8.653c0.107-0.187 0.16-0.413 0.16-0.64 0-0.733-0.6-1.333-1.333-1.333h-19.72l-1.253-2.667h-4.36zM22.667 24c-1.467 0-2.653 1.2-2.653 2.667s1.187 2.667 2.653 2.667 2.667-1.2 2.667-2.667-1.2-2.667-2.667-2.667z"></path>
</svg>
