<?xml version="1.0" encoding="utf-8"?>
<!-- Generated by IcoMoon.io -->
<!DOCTYPE svg PUBLIC "-//W3C//DTD SVG 1.1//EN" "http://www.w3.org/Graphics/SVG/1.1/DTD/svg11.dtd">
<svg version="1.1" xmlns="http://www.w3.org/2000/svg" xmlns:xlink="http://www.w3.org/1999/xlink" width="48" height="48" viewBox="0 0 48 48">
<rect fill="#ffffff" x="0" y="0" width="48" height="48"></rect>
<path fill="#444444" d="M24 14.208c-1.545 0-2.798-1.253-2.798-2.798v-8.393c0-1.545 1.253-2.798 2.798-2.798s2.798 1.253 2.798 2.798v8.393c0 1.545-1.253 2.798-2.798 2.798z"></path>
<path fill="#444444" d="M24 46.732c-0.966 0-1.749-0.783-1.749-1.749v-8.393c0-0.966 0.783-1.749 1.749-1.749s1.749 0.783 1.749 1.749v8.393c0 0.966-0.783 1.749-1.749 1.749z"></path>
<path fill="#444444" d="M17.707 15.72c-0.907 0-1.788-0.47-2.274-1.312l-4.197-7.269c-0.724-1.255-0.294-2.859 0.96-3.583s2.859-0.295 3.583 0.96l4.197 7.269c0.724 1.255 0.294 2.859-0.96 3.583-0.413 0.238-0.864 0.352-1.309 0.352z"></path>
<path fill="#444444" d="M34.493 43.746c-0.544 0-1.073-0.282-1.364-0.787l-4.197-7.269c-0.435-0.753-0.177-1.715 0.576-2.15s1.715-0.177 2.15 0.576l4.197 7.269c0.435 0.753 0.177 1.715-0.576 2.15-0.248 0.143-0.518 0.211-0.785 0.211z"></path>
<path fill="#444444" d="M13.094 20.153c-0.415 0-0.836-0.106-1.222-0.328l-7.269-4.197c-1.171-0.676-1.572-2.173-0.896-3.344s2.173-1.572 3.344-0.896l7.269 4.197c1.171 0.676 1.572 2.173 0.896 3.344-0.453 0.785-1.276 1.225-2.122 1.225z"></path>
<path fill="#444444" d="M42.171 35.891c-0.237 0-0.478-0.060-0.698-0.188l-7.269-4.197c-0.669-0.386-0.898-1.242-0.512-1.911s1.242-0.898 1.911-0.512l7.269 4.197c0.669 0.386 0.898 1.242 0.512 1.911-0.259 0.449-0.729 0.7-1.213 0.7z"></path>
<path fill="#444444" d="M11.41 26.273h-8.393c-1.256 0-2.273-1.018-2.273-2.273s1.018-2.273 2.273-2.273h8.393c1.256 0 2.273 1.018 2.273 2.273s-1.018 2.273-2.273 2.273z"></path>
<path fill="#444444" d="M44.984 25.399c-0 0 0 0 0 0h-8.393c-0.773-0-1.399-0.626-1.399-1.399s0.626-1.399 1.399-1.399c0 0 0 0 0 0h8.393c0.773 0 1.399 0.626 1.399 1.399s-0.626 1.399-1.399 1.399z"></path>
<path fill="#444444" d="M5.83 36.591c-0.725 0-1.431-0.376-1.819-1.050-0.579-1.004-0.236-2.287 0.768-2.866l7.269-4.197c1.004-0.58 2.287-0.236 2.866 0.768s0.236 2.287-0.768 2.866l-7.269 4.197c-0.33 0.191-0.691 0.282-1.047 0.282z"></path>
<path fill="#444444" d="M34.905 19.104c-0.483 0-0.954-0.251-1.213-0.7-0.386-0.669-0.157-1.525 0.512-1.911l7.269-4.197c0.669-0.386 1.525-0.157 1.911 0.512s0.157 1.525-0.512 1.911l-7.269 4.197c-0.22 0.127-0.461 0.188-0.698 0.188z"></path>
<path fill="#444444" d="M13.506 44.096c-0.326 0-0.657-0.083-0.96-0.258-0.92-0.531-1.235-1.708-0.704-2.628l4.197-7.269c0.531-0.92 1.707-1.235 2.628-0.704s1.235 1.708 0.704 2.628l-4.197 7.269c-0.356 0.617-1.003 0.962-1.668 0.962z"></path>
<path fill="#444444" d="M30.294 14.496c-0.237 0-0.478-0.060-0.698-0.188-0.669-0.386-0.898-1.242-0.512-1.911l4.197-7.269c0.386-0.669 1.242-0.898 1.911-0.512s0.898 1.242 0.512 1.911l-4.197 7.269c-0.259 0.449-0.729 0.7-1.213 0.7z"></path>
</svg>
