<?xml version="1.0" encoding="utf-8"?>
<!-- Generated by IcoMoon.io -->
<!DOCTYPE svg PUBLIC "-//W3C//DTD SVG 1.1//EN" "http://www.w3.org/Graphics/SVG/1.1/DTD/svg11.dtd">
<svg version="1.1" xmlns="http://www.w3.org/2000/svg" xmlns:xlink="http://www.w3.org/1999/xlink" width="32" height="32" viewBox="0 0 32 32">
<rect fill="#ffffff" x="0" y="0" width="32" height="32"></rect>
<path fill="#444444" d="M16 5.333v-4l-5.333 5.333 5.333 5.333v-4c4.413 0 8 3.587 8 8 0 1.347-0.333 2.627-0.933 3.733l1.947 1.947c1.040-1.64 1.653-3.587 1.653-5.68 0-5.893-4.773-10.667-10.667-10.667zM16 24c-4.413 0-8-3.587-8-8 0-1.347 0.333-2.627 0.933-3.733l-1.947-1.947c-1.040 1.64-1.653 3.587-1.653 5.68 0 5.893 4.773 10.667 10.667 10.667v4l5.333-5.333-5.333-5.333v4z"></path>
</svg>
