<?xml version="1.0" encoding="utf-8"?>
<!-- Generated by IcoMoon.io -->
<!DOCTYPE svg PUBLIC "-//W3C//DTD SVG 1.1//EN" "http://www.w3.org/Graphics/SVG/1.1/DTD/svg11.dtd">
<svg version="1.1" xmlns="http://www.w3.org/2000/svg" xmlns:xlink="http://www.w3.org/1999/xlink" width="32" height="32" viewBox="0 0 32 32">
<rect fill="#ffffff" x="0" y="0" width="32" height="32"></rect>
<path fill="#444444" d="M16 7.417c-4.749 0-8.599 3.85-8.599 8.599s3.85 8.599 8.599 8.599 8.599-3.85 8.599-8.599-3.85-8.599-8.599-8.599zM16 22.517c-3.59 0-6.5-2.91-6.5-6.5s2.91-6.5 6.5-6.5 6.5 2.91 6.5 6.5-2.91 6.5-6.5 6.5z"></path>
<path fill="#444444" d="M16 0.856c-8.376 0-15.167 6.79-15.167 15.167s6.79 15.167 15.167 15.167c8.376 0 15.167-6.79 15.167-15.167s-6.79-15.167-15.167-15.167zM16 30.278c-7.873 0-14.255-6.382-14.255-14.255s6.382-14.255 14.255-14.255c7.873 0 14.255 6.382 14.255 14.255s-6.382 14.255-14.255 14.255z"></path>
<path fill="#444444" d="M14.9 4.893h2.134v22.502h-2.134v-22.502z"></path>
<path fill="#444444" d="M5.632 14.667c0.655-5.143 5.047-9.119 10.368-9.119s9.713 3.976 10.368 9.119h1.963c-0.665-6.222-5.932-11.069-12.331-11.069s-11.666 4.846-12.331 11.069h1.963z"></path>
<path fill="#444444" d="M26.43 16.678c-0.349 5.457-4.885 9.775-10.43 9.775s-10.081-4.318-10.43-9.775h-1.954c0.352 6.534 5.762 11.724 12.384 11.724s12.032-5.19 12.384-11.724h-1.954z"></path>
</svg>
