<?xml version="1.0" encoding="utf-8"?>
<!-- Generated by IcoMoon.io -->
<!DOCTYPE svg PUBLIC "-//W3C//DTD SVG 1.1//EN" "http://www.w3.org/Graphics/SVG/1.1/DTD/svg11.dtd">
<svg version="1.1" xmlns="http://www.w3.org/2000/svg" xmlns:xlink="http://www.w3.org/1999/xlink" width="48" height="48" viewBox="0 0 48 48">
<rect fill="#ffffff" x="0" y="0" width="48" height="48"></rect>
<path fill="#444444" d="M24 14c5.52 0 10 4.48 10 10 0 1.3-0.26 2.52-0.72 3.66l5.84 5.84c3.020-2.52 5.4-5.78 6.86-9.5-3.46-8.78-12-15-22-15-2.8 0-5.48 0.5-7.96 1.4l4.32 4.32c1.14-0.46 2.36-0.72 3.66-0.72zM4 8.54l5.48 5.48c-3.32 2.58-5.92 6.020-7.48 9.98 3.46 8.78 12 15 22 15 3.1 0 6.060-0.6 8.76-1.68l0.84 0.84 5.86 5.84 2.54-2.54-35.46-35.46-2.54 2.54zM15.060 19.6l3.1 3.1c-0.1 0.42-0.16 0.86-0.16 1.3 0 3.32 2.68 6 6 6 0.44 0 0.88-0.060 1.3-0.16l3.1 3.1c-1.34 0.66-2.82 1.060-4.4 1.060-5.52 0-10-4.48-10-10 0-1.58 0.4-3.060 1.060-4.4zM23.68 18.040l6.3 6.3 0.040-0.32c0-3.32-2.68-6-6-6l-0.34 0.020z"></path>
</svg>
