<?xml version="1.0" encoding="utf-8"?>
<!-- Generated by IcoMoon.io -->
<!DOCTYPE svg PUBLIC "-//W3C//DTD SVG 1.1//EN" "http://www.w3.org/Graphics/SVG/1.1/DTD/svg11.dtd">
<svg version="1.1" xmlns="http://www.w3.org/2000/svg" xmlns:xlink="http://www.w3.org/1999/xlink" width="32" height="32" viewBox="0 0 32 32">
<rect fill="#ffffff" x="0" y="0" width="32" height="32"></rect>
<path fill="#444444" d="M16 20c2.213 0 3.987-1.787 3.987-4l0.013-8c0-2.213-1.787-4-4-4s-4 1.787-4 4v8c0 2.213 1.787 4 4 4zM23.067 16c0 4-3.387 6.8-7.067 6.8s-7.067-2.8-7.067-6.8h-2.267c0 4.56 3.627 8.307 8 8.96v4.373h2.667v-4.373c4.373-0.64 8-4.4 8-8.96h-2.267z"></path>
</svg>
