<?xml version="1.0" encoding="utf-8"?>
<!-- Generated by IcoMoon.io -->
<!DOCTYPE svg PUBLIC "-//W3C//DTD SVG 1.1//EN" "http://www.w3.org/Graphics/SVG/1.1/DTD/svg11.dtd">
<svg version="1.1" xmlns="http://www.w3.org/2000/svg" xmlns:xlink="http://www.w3.org/1999/xlink" width="32" height="32" viewBox="0 0 32 32">
<rect fill="#ffffff" x="0" y="0" width="32" height="32"></rect>
<path fill="#444444" d="M30.942 1.19c-0.395-0.395-0.912-0.592-1.43-0.592-0.519 0-1.036 0.198-1.43 0.592l-5.951 5.95v-1.128h-21.569v25.613h25.613v-21.569h-1.24l6.006-6.007c0.791-0.787 0.791-2.070 0-2.859zM24.828 30.277h-22.917v-22.917h20.001l-10.565 10.563v2.917h2.805l10.675-10.676v20.113zM29.988 3.096l-16.394 16.396h-0.899v-1.011l16.34-16.338c0.171-0.171 0.371-0.198 0.477-0.198 0.104 0 0.306 0.026 0.477 0.198 0.172 0.172 0.199 0.374 0.199 0.478s-0.026 0.304-0.199 0.475z"></path>
</svg>
