<?xml version="1.0" encoding="utf-8"?>
<!-- Generated by IcoMoon.io -->
<!DOCTYPE svg PUBLIC "-//W3C//DTD SVG 1.1//EN" "http://www.w3.org/Graphics/SVG/1.1/DTD/svg11.dtd">
<svg version="1.1" xmlns="http://www.w3.org/2000/svg" xmlns:xlink="http://www.w3.org/1999/xlink" width="48" height="48" viewBox="0 0 48 48">
<rect fill="#ffffff" x="0" y="0" width="48" height="48"></rect>
<path fill="#444444" d="M46.412 1.785c-0.592-0.592-1.368-0.889-2.145-0.889-0.778 0-1.554 0.296-2.144 0.889l-8.926 8.926v-1.692h-32.354v38.419h38.42v-32.353h-1.86l9.009-9.011c1.187-1.181 1.187-3.104 0-4.289zM37.242 45.415h-34.376v-34.375h30.002l-15.847 15.844v4.376h4.208l16.013-16.014v30.169zM44.983 4.644l-24.591 24.594h-1.349v-1.517l24.51-24.507c0.257-0.257 0.557-0.296 0.715-0.296 0.156 0 0.458 0.039 0.715 0.296 0.259 0.259 0.298 0.561 0.298 0.717s-0.040 0.456-0.298 0.713z"></path>
</svg>
