<?xml version="1.0" encoding="utf-8"?>
<!-- Generated by IcoMoon.io -->
<!DOCTYPE svg PUBLIC "-//W3C//DTD SVG 1.1//EN" "http://www.w3.org/Graphics/SVG/1.1/DTD/svg11.dtd">
<svg version="1.1" xmlns="http://www.w3.org/2000/svg" xmlns:xlink="http://www.w3.org/1999/xlink" width="48" height="48" viewBox="0 0 48 48">
<rect fill="#ffffff" x="0" y="0" width="48" height="48"></rect>
<path fill="#444444" d="M22 18h4v-6h6v-4h-6v-6h-4v6h-6v4h6v6zM14 36c-2.2 0-3.98 1.8-3.98 4s1.78 4 3.98 4 4-1.8 4-4-1.8-4-4-4zM34 36c-2.2 0-3.98 1.8-3.98 4s1.78 4 3.98 4 4-1.8 4-4-1.8-4-4-4zM14.34 29.5l0.060-0.24 1.8-3.26h14.9c1.5 0 2.82-0.82 3.5-2.060l7.72-14.020-3.48-1.92h-0.020l-2.2 4-5.52 10h-14.040l-0.26-0.54-4.48-9.46-1.9-4-1.88-4h-6.54v4h4l7.2 15.18-2.7 4.9c-0.32 0.56-0.5 1.22-0.5 1.92 0 2.2 1.8 4 4 4h24v-4h-23.16c-0.26 0-0.5-0.22-0.5-0.5z"></path>
</svg>
