<?xml version="1.0" encoding="utf-8"?>
<!-- Generated by IcoMoon.io -->
<!DOCTYPE svg PUBLIC "-//W3C//DTD SVG 1.1//EN" "http://www.w3.org/Graphics/SVG/1.1/DTD/svg11.dtd">
<svg version="1.1" xmlns="http://www.w3.org/2000/svg" xmlns:xlink="http://www.w3.org/1999/xlink" width="48" height="48" viewBox="0 0 48 48">
<rect fill="#ffffff" x="0" y="0" width="48" height="48"></rect>
<path fill="#444444" d="M12 36c0 1.1 0.9 2 2 2h2v7c0 1.66 1.34 3 3 3s3-1.34 3-3v-7h4v7c0 1.66 1.34 3 3 3s3-1.34 3-3v-7h2c1.1 0 2-0.9 2-2v-20h-24v20zM7 16c-1.66 0-3 1.34-3 3v14c0 1.66 1.34 3 3 3s3-1.34 3-3v-14c0-1.66-1.34-3-3-3zM41 16c-1.66 0-3 1.34-3 3v14c0 1.66 1.34 3 3 3s3-1.34 3-3v-14c0-1.66-1.34-3-3-3zM31.060 4.32l2.6-2.6c0.4-0.4 0.4-1.020 0-1.42s-1.020-0.4-1.42 0l-2.96 2.96c-1.58-0.8-3.38-1.26-5.28-1.26-1.92 0-3.72 0.46-5.32 1.26l-2.98-2.96c-0.4-0.4-1.020-0.4-1.42 0s-0.4 1.020 0 1.42l2.62 2.62c-2.96 2.18-4.9 5.68-4.9 9.66h24c0-3.98-1.94-7.5-4.94-9.68zM20 10h-2v-2h2v2zM30 10h-2v-2h2v2z"></path>
</svg>
