<?xml version="1.0" encoding="utf-8"?>
<!-- Generated by IcoMoon.io -->
<!DOCTYPE svg PUBLIC "-//W3C//DTD SVG 1.1//EN" "http://www.w3.org/Graphics/SVG/1.1/DTD/svg11.dtd">
<svg version="1.1" xmlns="http://www.w3.org/2000/svg" xmlns:xlink="http://www.w3.org/1999/xlink" width="48" height="48" viewBox="0 0 48 48">
<rect fill="#ffffff" x="0" y="0" width="48" height="48"></rect>
<path fill="#444444" d="M34.667 37.333c0 5.893-4.773 10.667-10.667 10.667s-10.667-4.773-10.667-10.667v-29.333c0-4.427 3.573-8 8-8s8 3.573 8 8v24c0 2.933-2.4 5.333-5.333 5.333s-5.333-2.4-5.333-5.333v-21.333h2.667v21.333c0 1.467 1.2 2.667 2.667 2.667s2.667-1.2 2.667-2.667v-24c0-2.933-2.4-5.333-5.333-5.333s-5.333 2.4-5.333 5.333v29.333c0 4.427 3.573 8 8 8s8-3.573 8-8v-26.667h2.667v26.667z"></path>
</svg>
