<?xml version="1.0" encoding="utf-8"?>
<!-- Generated by IcoMoon.io -->
<!DOCTYPE svg PUBLIC "-//W3C//DTD SVG 1.1//EN" "http://www.w3.org/Graphics/SVG/1.1/DTD/svg11.dtd">
<svg version="1.1" xmlns="http://www.w3.org/2000/svg" xmlns:xlink="http://www.w3.org/1999/xlink" width="48" height="48" viewBox="0 0 48 48">
<rect fill="#ffffff" x="0" y="0" width="48" height="48"></rect>
<path fill="#444444" d="M18.8 21l9.54-16.52c-1.4-0.3-2.84-0.48-4.34-0.48-4.8 0-9.2 1.7-12.64 4.5l7.32 12.7 0.12-0.2zM43.080 18c-1.84-5.84-6.3-10.52-12-12.68l-7.32 12.68h19.32zM43.6 20h-14.98l0.58 1 9.52 16.5c3.28-3.56 5.28-8.28 5.28-13.5 0-1.38-0.14-2.7-0.4-4zM17.080 24l-7.8-13.5c-3.26 3.56-5.28 8.28-5.28 13.5 0 1.38 0.14 2.7 0.4 4h14.98l-2.3-4zM4.92 30c1.84 5.84 6.3 10.52 12 12.68l7.32-12.68h-19.32zM27.46 30l-7.8 13.52c1.4 0.3 2.84 0.48 4.34 0.48 4.8 0 9.2-1.7 12.64-4.5l-7.32-12.7-1.86 3.2z"></path>
</svg>
