<?xml version="1.0" encoding="utf-8"?>
<!-- Generated by IcoMoon.io -->
<!DOCTYPE svg PUBLIC "-//W3C//DTD SVG 1.1//EN" "http://www.w3.org/Graphics/SVG/1.1/DTD/svg11.dtd">
<svg version="1.1" xmlns="http://www.w3.org/2000/svg" xmlns:xlink="http://www.w3.org/1999/xlink" width="48" height="48" viewBox="0 0 48 48">
<rect fill="#ffffff" x="0" y="0" width="48" height="48"></rect>
<path fill="#444444" d="M38.7 20.080c-1.36-6.9-7.42-12.080-14.7-12.080-5.78 0-10.8 3.28-13.3 8.080-6.020 0.64-10.7 5.74-10.7 11.92 0 6.62 5.38 12 12 12h26c5.52 0 10-4.48 10-10 0-5.28-4.1-9.56-9.3-9.92zM38 36h-26c-4.42 0-8-3.58-8-8s3.58-8 8-8h1.42c1.32-4.62 5.54-8 10.58-8 6.080 0 11 4.92 11 11v1h3c3.32 0 6 2.68 6 6s-2.68 6-6 6z"></path>
</svg>
