<?xml version="1.0" encoding="utf-8"?>
<!-- Generated by IcoMoon.io -->
<!DOCTYPE svg PUBLIC "-//W3C//DTD SVG 1.1//EN" "http://www.w3.org/Graphics/SVG/1.1/DTD/svg11.dtd">
<svg version="1.1" xmlns="http://www.w3.org/2000/svg" xmlns:xlink="http://www.w3.org/1999/xlink" width="48" height="48" viewBox="0 0 48 48">
<rect fill="#ffffff" x="0" y="0" width="48" height="48"></rect>
<path fill="#444444" d="M39.008 9.022h-7.927v-1.586c0-1.751-1.42-3.171-3.171-3.171h-7.927c-1.751 0-3.171 1.42-3.171 3.171v1.586h-7.927v1.585h1.632l1.588 30.124c0 1.751 1.42 3.171 3.171 3.171h17.44c1.751 0 3.171-1.42 3.171-3.171l1.558-30.124h1.564v-1.585zM18.397 7.436c0-0.875 0.711-1.585 1.585-1.585h7.927c0.875 0 1.585 0.711 1.585 1.585v1.586h-11.098v-1.586zM34.303 40.649l-0.002 0.040v0.042c0 0.875-0.711 1.585-1.585 1.585h-17.44c-0.875 0-1.585-0.711-1.585-1.585v-0.042l-0.001-0.042-1.584-30.040h23.754l-1.556 30.042z"></path>
<path fill="#444444" d="M23.153 13.778h1.586v25.367h-1.586v-25.367z"></path>
<path fill="#444444" d="M20.018 39.095l-1.623-25.318-1.582 0.102 1.623 25.318z"></path>
<path fill="#444444" d="M31.092 13.828l-1.582-0.099-1.599 25.367 1.582 0.099z"></path>
</svg>
