<?xml version="1.0" encoding="utf-8"?>
<!-- Generated by IcoMoon.io -->
<!DOCTYPE svg PUBLIC "-//W3C//DTD SVG 1.1//EN" "http://www.w3.org/Graphics/SVG/1.1/DTD/svg11.dtd">
<svg version="1.1" xmlns="http://www.w3.org/2000/svg" xmlns:xlink="http://www.w3.org/1999/xlink" width="48" height="48" viewBox="0 0 48 48">
<rect fill="#ffffff" x="0" y="0" width="48" height="48"></rect>
<path fill="#444444" d="M33 6c-3.48 0-6.82 1.62-9 4.18-2.18-2.56-5.52-4.18-9-4.18-6.16 0-11 4.84-11 11 0 7.56 6.8 13.72 17.1 23.080l2.9 2.62 2.9-2.64c10.3-9.34 17.1-15.5 17.1-23.060 0-6.16-4.84-11-11-11zM24.2 37.1l-0.2 0.2-0.2-0.2c-9.52-8.62-15.8-14.32-15.8-20.1 0-4 3-7 7-7 3.080 0 6.080 1.98 7.14 4.72h3.74c1.040-2.74 4.040-4.72 7.12-4.72 4 0 7 3 7 7 0 5.78-6.28 11.48-15.8 20.1z"></path>
</svg>
