<?xml version="1.0" encoding="utf-8"?>
<!-- Generated by IcoMoon.io -->
<!DOCTYPE svg PUBLIC "-//W3C//DTD SVG 1.1//EN" "http://www.w3.org/Graphics/SVG/1.1/DTD/svg11.dtd">
<svg version="1.1" xmlns="http://www.w3.org/2000/svg" xmlns:xlink="http://www.w3.org/1999/xlink" width="48" height="48" viewBox="0 0 48 48">
<rect fill="#ffffff" x="0" y="0" width="48" height="48"></rect>
<path fill="#444444" d="M6 10h-4v32c0 2.21 1.79 4 4 4h32v-4h-32v-32zM42 2h-28c-2.21 0-4 1.79-4 4v28c0 2.21 1.79 4 4 4h28c2.21 0 4-1.79 4-4v-28c0-2.21-1.79-4-4-4zM42 34h-28v-28h28v28zM30 10h-4c-2.21 0-4 1.79-4 4v4c0 2.21 1.79 4 4 4h4v4h-8v4h8c2.21 0 4-1.79 4-4v-12c0-2.21-1.79-4-4-4zM30 18h-4v-4h4v4z"></path>
</svg>
