<?xml version="1.0" encoding="utf-8"?>
<!-- Generated by IcoMoon.io -->
<!DOCTYPE svg PUBLIC "-//W3C//DTD SVG 1.1//EN" "http://www.w3.org/Graphics/SVG/1.1/DTD/svg11.dtd">
<svg version="1.1" xmlns="http://www.w3.org/2000/svg" xmlns:xlink="http://www.w3.org/1999/xlink" width="48" height="48" viewBox="0 0 48 48">
<rect fill="#ffffff" x="0" y="0" width="48" height="48"></rect>
<path fill="#444444" d="M22 8.14v-4.040c-4.020 0.4-7.68 2-10.64 4.42l2.84 2.86c2.22-1.72 4.88-2.88 7.8-3.24zM36.64 8.52c-2.96-2.42-6.62-4.020-10.64-4.42v4.040c2.92 0.36 5.58 1.52 7.8 3.24l2.84-2.86zM39.86 22h4.040c-0.4-4.020-2-7.68-4.42-10.64l-2.86 2.84c1.72 2.22 2.88 4.88 3.24 7.8zM11.38 14.2l-2.86-2.84c-2.42 2.96-4.020 6.62-4.42 10.64h4.040c0.36-2.92 1.52-5.58 3.24-7.8zM8.14 26h-4.040c0.4 4.020 2 7.68 4.42 10.64l2.86-2.86c-1.72-2.2-2.88-4.86-3.24-7.78zM30 24c0-3.32-2.68-6-6-6s-6 2.68-6 6 2.68 6 6 6 6-2.68 6-6zM36.62 33.8l2.86 2.86c2.42-2.96 4.020-6.64 4.42-10.64h-4.040c-0.36 2.9-1.52 5.56-3.24 7.78zM26 39.86v4.040c4.020-0.4 7.68-2 10.64-4.42l-2.86-2.86c-2.2 1.72-4.86 2.88-7.78 3.24zM11.36 39.48c2.96 2.42 6.64 4.020 10.64 4.42v-4.040c-2.92-0.36-5.58-1.52-7.8-3.24l-2.84 2.86z"></path>
</svg>
