<?xml version="1.0" encoding="utf-8"?>
<!-- Generated by IcoMoon.io -->
<!DOCTYPE svg PUBLIC "-//W3C//DTD SVG 1.1//EN" "http://www.w3.org/Graphics/SVG/1.1/DTD/svg11.dtd">
<svg version="1.1" xmlns="http://www.w3.org/2000/svg" xmlns:xlink="http://www.w3.org/1999/xlink" width="48" height="48" viewBox="0 0 48 48">
<rect fill="#ffffff" x="0" y="0" width="48" height="48"></rect>
<path fill="#444444" d="M42.591 10.758h-23.465v-1.805c0-1.994-1.616-3.61-3.61-3.61h-9.025c-1.993 0-3.61 1.616-3.61 3.61v30.685c0 1.992 1.616 3.61 3.61 3.61h36.099c1.994 0 3.61-1.618 3.61-3.61v-25.271c0-1.994-1.616-3.61-3.61-3.61zM4.686 8.953c0-0.996 0.811-1.805 1.805-1.805h9.025c0.994 0 1.805 0.809 1.805 1.805v3.61h25.27c0.994 0 1.805 0.809 1.805 1.805v1.805h-39.709v-7.22zM42.591 41.443h-36.099c-0.994 0-1.805-0.811-1.805-1.805v-21.66h39.709v21.66c0 0.994-0.811 1.805-1.805 1.805z"></path>
</svg>
