<?xml version="1.0" encoding="utf-8"?>
<!-- Generated by IcoMoon.io -->
<!DOCTYPE svg PUBLIC "-//W3C//DTD SVG 1.1//EN" "http://www.w3.org/Graphics/SVG/1.1/DTD/svg11.dtd">
<svg version="1.1" xmlns="http://www.w3.org/2000/svg" xmlns:xlink="http://www.w3.org/1999/xlink" width="48" height="48" viewBox="0 0 48 48">
<rect fill="#ffffff" x="0" y="0" width="48" height="48"></rect>
<path fill="#444444" d="M42.667 10.667h-16l-5.333-5.333h-16c-1.467 0-2.667 1.2-2.667 2.667v32c0 1.467 1.2 2.667 2.667 2.667h37.333c1.467 0 2.667-1.2 2.667-2.667v-26.667c0-1.467-1.2-2.667-2.667-2.667zM30.667 18c2.587 0 4.667 2.080 4.667 4.667s-2.080 4.667-4.667 4.667-4.667-2.080-4.667-4.667 2.080-4.667 4.667-4.667zM40 37.333h-18.667v-3.333c0-3.12 6.213-4.667 9.333-4.667s9.333 1.547 9.333 4.667v3.333z"></path>
</svg>
