<?xml version="1.0" encoding="utf-8"?>
<!-- Generated by IcoMoon.io -->
<!DOCTYPE svg PUBLIC "-//W3C//DTD SVG 1.1//EN" "http://www.w3.org/Graphics/SVG/1.1/DTD/svg11.dtd">
<svg version="1.1" xmlns="http://www.w3.org/2000/svg" xmlns:xlink="http://www.w3.org/1999/xlink" width="48" height="48" viewBox="0 0 48 48">
<rect fill="#ffffff" x="0" y="0" width="48" height="48"></rect>
<path fill="#444444" d="M29.18 16l-5.18 5.18-5.18-5.18-2.82 2.82 5.18 5.18-5.18 5.18 2.82 2.82 5.18-5.18 5.18 5.18 2.82-2.82-5.18-5.18 5.18-5.18-2.82-2.82zM24 4c-11.060 0-20 8.94-20 20s8.94 20 20 20 20-8.94 20-20-8.94-20-20-20zM24 40c-8.82 0-16-7.18-16-16s7.18-16 16-16 16 7.18 16 16-7.18 16-16 16z"></path>
</svg>
