<?xml version="1.0" encoding="utf-8"?>
<!-- Generated by IcoMoon.io -->
<!DOCTYPE svg PUBLIC "-//W3C//DTD SVG 1.1//EN" "http://www.w3.org/Graphics/SVG/1.1/DTD/svg11.dtd">
<svg version="1.1" xmlns="http://www.w3.org/2000/svg" xmlns:xlink="http://www.w3.org/1999/xlink" width="48" height="48" viewBox="0 0 48 48">
<rect fill="#ffffff" x="0" y="0" width="48" height="48"></rect>
<path fill="#444444" d="M24 30c3.32 0 5.98-2.68 5.98-6l0.020-12c0-3.32-2.68-6-6-6s-6 2.68-6 6v12c0 3.32 2.68 6 6 6zM34.6 24c0 6-5.080 10.2-10.6 10.2s-10.6-4.2-10.6-10.2h-3.4c0 6.84 5.44 12.46 12 13.44v6.56h4v-6.56c6.56-0.96 12-6.6 12-13.44h-3.4z"></path>
</svg>
