<?xml version="1.0" encoding="utf-8"?>
<!-- Generated by IcoMoon.io -->
<!DOCTYPE svg PUBLIC "-//W3C//DTD SVG 1.1//EN" "http://www.w3.org/Graphics/SVG/1.1/DTD/svg11.dtd">
<svg version="1.1" xmlns="http://www.w3.org/2000/svg" xmlns:xlink="http://www.w3.org/1999/xlink" width="48" height="48" viewBox="0 0 48 48">
<rect fill="#ffffff" x="0" y="0" width="48" height="48"></rect>
<path fill="rgb(216, 41, 43)" d="M47.918 23.55c0-9.837-6.231-18.223-14.958-21.424 11.005 9.978 9.288 27.065 1.928 33.81 6.625-9.836 4.984-25.806-6.962-33.485-3.66 0.959-7.275 3.566-7.141 9.030 0.201 8.571 10.998 14.811 10.842 24.312-0.132 7.735-6.421 9.922-8.751 10.468 0.74 0.068 1.476 0.108 2.226 0.108 12.595 0 22.816-10.223 22.816-22.819z"></path>
<path fill="rgb(16, 124, 191)" d="M0.177 23.505c-0.279 9.833 5.714 18.386 14.34 21.831-10.717-10.272-8.521-27.307-0.967-33.844-6.903 9.652-5.713 25.665 6.018 33.665 3.681-0.853 7.363-3.352 7.392-8.831 0.030-8.565-10.575-15.105-10.163-24.597 0.346-7.737 6.702-9.738 9.040-10.218-0.727-0.096-1.468-0.155-2.214-0.172-12.596-0.353-23.102 9.578-23.447 22.167z"></path>
</svg>
