<?xml version="1.0" encoding="utf-8"?>
<!-- Generated by IcoMoon.io -->
<!DOCTYPE svg PUBLIC "-//W3C//DTD SVG 1.1//EN" "http://www.w3.org/Graphics/SVG/1.1/DTD/svg11.dtd">
<svg version="1.1" xmlns="http://www.w3.org/2000/svg" xmlns:xlink="http://www.w3.org/1999/xlink" width="48" height="48" viewBox="0 0 48 48">
<rect fill="#ffffff" x="0" y="0" width="48" height="48"></rect>
<path fill="#444444" d="M16 21.333c1.467 0 2.667-1.2 2.667-2.667s-1.2-2.667-2.667-2.667-2.667 1.2-2.667 2.667 1.2 2.667 2.667 2.667zM32 21.333c1.467 0 2.667-1.2 2.667-2.667s-1.2-2.667-2.667-2.667-2.667 1.2-2.667 2.667 1.2 2.667 2.667 2.667zM24 36c5.707 0 10.453-4 11.68-9.333h-23.36c1.227 5.333 5.973 9.333 11.68 9.333zM24 2.667c-11.813 0-21.333 9.547-21.333 21.333s9.52 21.333 21.333 21.333 21.333-9.547 21.333-21.333-9.547-21.333-21.333-21.333zM24 41.333c-9.573 0-17.333-7.76-17.333-17.333s7.76-17.333 17.333-17.333 17.333 7.76 17.333 17.333-7.76 17.333-17.333 17.333z"></path>
</svg>
