<?xml version="1.0" encoding="utf-8"?>
<!-- Generated by IcoMoon.io -->
<!DOCTYPE svg PUBLIC "-//W3C//DTD SVG 1.1//EN" "http://www.w3.org/Graphics/SVG/1.1/DTD/svg11.dtd">
<svg version="1.1" xmlns="http://www.w3.org/2000/svg" xmlns:xlink="http://www.w3.org/1999/xlink" width="48" height="48" viewBox="0 0 48 48">
<rect fill="#ffffff" x="0" y="0" width="48" height="48"></rect>
<path fill="#444444" d="M24 14.667c2.213 0 4-1.787 4-4s-1.787-4-4-4-4 1.787-4 4 1.787 4 4 4zM24 20c-2.213 0-4 1.787-4 4s1.787 4 4 4 4-1.787 4-4-1.787-4-4-4zM24 33.333c-2.213 0-4 1.787-4 4s1.787 4 4 4 4-1.787 4-4-1.787-4-4-4z"></path>
</svg>
