<?xml version="1.0" encoding="utf-8"?>
<!-- Generated by IcoMoon.io -->
<!DOCTYPE svg PUBLIC "-//W3C//DTD SVG 1.1//EN" "http://www.w3.org/Graphics/SVG/1.1/DTD/svg11.dtd">
<svg version="1.1" xmlns="http://www.w3.org/2000/svg" xmlns:xlink="http://www.w3.org/1999/xlink" width="48" height="48" viewBox="0 0 48 48">
<rect fill="#ffffff" x="0" y="0" width="48" height="48"></rect>
<path fill="#444444" d="M23.95 5.868c-9.992 0-18.093 8.101-18.093 18.094s8.101 18.094 18.093 18.094c9.992 0 18.094-8.101 18.094-18.094s-8.103-18.094-18.094-18.094zM34.513 19.061l-12.386 12.011c-0.212 0.205-0.484 0.307-0.756 0.307-0.278 0-0.556-0.107-0.768-0.32l-4.826-4.826c-0.424-0.424-0.424-1.111 0-1.535s1.111-0.424 1.535 0l4.071 4.071 11.617-11.268c0.43-0.417 1.117-0.407 1.535 0.024 0.418 0.43 0.407 1.117-0.023 1.535z"></path>
</svg>
