<?xml version="1.0" encoding="utf-8"?>
<!-- Generated by IcoMoon.io -->
<!DOCTYPE svg PUBLIC "-//W3C//DTD SVG 1.1//EN" "http://www.w3.org/Graphics/SVG/1.1/DTD/svg11.dtd">
<svg version="1.1" xmlns="http://www.w3.org/2000/svg" xmlns:xlink="http://www.w3.org/1999/xlink" width="48" height="48" viewBox="0 0 48 48">
<rect fill="#ffffff" x="0" y="0" width="48" height="48"></rect>
<path fill="#444444" d="M24 11.8c2.32 0 4.2 1.88 4.2 4.2s-1.88 4.2-4.2 4.2-4.2-1.88-4.2-4.2 1.88-4.2 4.2-4.2zM24 29.8c5.94 0 12.2 2.92 12.2 4.2v2.2h-24.4v-2.2c0-1.28 6.26-4.2 12.2-4.2zM24 8c-4.42 0-8 3.58-8 8s3.58 8 8 8 8-3.58 8-8-3.58-8-8-8zM24 26c-5.34 0-16 2.68-16 8v6h32v-6c0-5.32-10.66-8-16-8z"></path>
</svg>
