<?xml version="1.0" encoding="utf-8"?>
<!-- Generated by IcoMoon.io -->
<!DOCTYPE svg PUBLIC "-//W3C//DTD SVG 1.1//EN" "http://www.w3.org/Graphics/SVG/1.1/DTD/svg11.dtd">
<svg version="1.1" xmlns="http://www.w3.org/2000/svg" xmlns:xlink="http://www.w3.org/1999/xlink" width="48" height="48" viewBox="0 0 48 48">
<rect fill="#ffffff" x="0" y="0" width="48" height="48"></rect>
<path fill="#444444" d="M23.926 6.011c-9.941 0-17.998 8.057-17.998 17.998s8.057 17.998 17.998 17.998 17.998-8.057 17.998-17.998c0-9.941-8.057-17.998-17.998-17.998zM23.926 40.566c-9.13 0-16.558-7.428-16.558-16.558s7.428-16.558 16.558-16.558c9.13 0 16.558 7.428 16.558 16.558s-7.428 16.558-16.558 16.558z"></path>
<path fill="#444444" d="M24.646 13.21h-1.44v10.079h-10.031v1.44h10.031v10.031h1.44v-10.031h10.079v-1.44h-10.079z"></path>
</svg>
