<?xml version="1.0" encoding="utf-8"?>
<!-- Generated by IcoMoon.io -->
<!DOCTYPE svg PUBLIC "-//W3C//DTD SVG 1.1//EN" "http://www.w3.org/Graphics/SVG/1.1/DTD/svg11.dtd">
<svg version="1.1" xmlns="http://www.w3.org/2000/svg" xmlns:xlink="http://www.w3.org/1999/xlink" width="48" height="48" viewBox="0 0 48 48">
<rect fill="#ffffff" x="0" y="0" width="48" height="48"></rect>
<path fill="#444444" d="M26 6h-4v20h4v-20zM35.66 10.34l-2.84 2.84c3.16 2.54 5.18 6.44 5.18 10.82 0 7.74-6.26 14-14 14s-14-6.26-14-14c0-4.38 2.020-8.28 5.16-10.84l-2.82-2.82c-3.88 3.3-6.34 8.18-6.34 13.66 0 9.94 8.060 18 18 18s18-8.060 18-18c0-5.48-2.46-10.36-6.34-13.66z"></path>
</svg>
