<?xml version="1.0" encoding="utf-8"?>
<!-- Generated by IcoMoon.io -->
<!DOCTYPE svg PUBLIC "-//W3C//DTD SVG 1.1//EN" "http://www.w3.org/Graphics/SVG/1.1/DTD/svg11.dtd">
<svg version="1.1" xmlns="http://www.w3.org/2000/svg" xmlns:xlink="http://www.w3.org/1999/xlink" width="48" height="48" viewBox="0 0 48 48">
<rect fill="#ffffff" x="0" y="0" width="48" height="48"></rect>
<path fill="#444444" d="M38.86 25.96c0.080-0.64 0.14-1.28 0.14-1.96s-0.060-1.32-0.14-1.96l4.22-3.3c0.38-0.3 0.48-0.84 0.24-1.28l-4-6.92c-0.24-0.44-0.78-0.6-1.22-0.44l-4.98 2c-1.040-0.8-2.16-1.46-3.38-1.96l-0.76-5.3c-0.060-0.48-0.48-0.84-0.98-0.84h-8c-0.5 0-0.92 0.36-0.98 0.84l-0.76 5.3c-1.22 0.5-2.34 1.18-3.38 1.96l-4.98-2c-0.46-0.18-0.98 0-1.22 0.44l-4 6.92c-0.26 0.44-0.14 0.98 0.24 1.28l4.22 3.3c-0.080 0.64-0.14 1.3-0.14 1.96s0.060 1.32 0.14 1.96l-4.22 3.3c-0.38 0.3-0.48 0.84-0.24 1.28l4 6.92c0.24 0.44 0.78 0.6 1.22 0.44l4.98-2c1.040 0.8 2.16 1.46 3.38 1.96l0.76 5.3c0.060 0.48 0.48 0.84 0.98 0.84h8c0.5 0 0.92-0.36 0.98-0.84l0.76-5.3c1.22-0.5 2.34-1.18 3.38-1.96l4.98 2c0.46 0.18 0.98 0 1.22-0.44l4-6.92c0.24-0.44 0.14-0.98-0.24-1.28l-4.22-3.3zM24 31c-3.86 0-7-3.14-7-7s3.14-7 7-7 7 3.14 7 7-3.14 7-7 7z"></path>
</svg>
