<?xml version="1.0" encoding="utf-8"?>
<!-- Generated by IcoMoon.io -->
<!DOCTYPE svg PUBLIC "-//W3C//DTD SVG 1.1//EN" "http://www.w3.org/Graphics/SVG/1.1/DTD/svg11.dtd">
<svg version="1.1" xmlns="http://www.w3.org/2000/svg" xmlns:xlink="http://www.w3.org/1999/xlink" width="48" height="48" viewBox="0 0 48 48">
<rect fill="#ffffff" x="0" y="0" width="48" height="48"></rect>
<path fill="#444444" d="M36.525 6.891c-2.911 0-5.271 2.361-5.271 5.271 0 0.506 0.094 0.984 0.226 1.448l-15.444 6.474c-0.911-1.576-2.596-2.651-4.548-2.651-2.911 0-5.271 2.361-5.271 5.271 0 2.911 2.36 5.271 5.271 5.271 1.525 0 2.888-0.658 3.85-1.692l9.955 7.153c-0.387 0.733-0.628 1.556-0.628 2.444 0 2.912 2.36 5.272 5.271 5.272s5.271-2.36 5.271-5.272c0-2.91-2.36-5.27-5.271-5.27-1.548 0-2.926 0.679-3.891 1.742l-9.945-7.146c0.407-0.748 0.659-1.592 0.659-2.503 0-0.49-0.089-0.955-0.214-1.405l15.452-6.477c0.916 1.556 2.59 2.612 4.527 2.612 2.911 0 5.271-2.36 5.271-5.272-0-2.909-2.36-5.271-5.271-5.271zM11.488 26.656c-2.18 0-3.953-1.773-3.953-3.953s1.773-3.953 3.953-3.953c2.18 0 3.953 1.773 3.953 3.953s-1.773 3.953-3.953 3.953zM29.936 31.927c2.18 0 3.953 1.773 3.953 3.952 0 2.18-1.773 3.954-3.953 3.954s-3.953-1.775-3.953-3.954c0-2.179 1.773-3.952 3.953-3.952zM36.525 16.116c-2.18 0-3.953-1.773-3.953-3.954 0-2.18 1.773-3.953 3.953-3.953s3.953 1.773 3.953 3.953c0 2.181-1.773 3.954-3.953 3.954z"></path>
</svg>
