<?xml version="1.0" encoding="utf-8"?>
<!-- Generated by IcoMoon.io -->
<!DOCTYPE svg PUBLIC "-//W3C//DTD SVG 1.1//EN" "http://www.w3.org/Graphics/SVG/1.1/DTD/svg11.dtd">
<svg version="1.1" xmlns="http://www.w3.org/2000/svg" xmlns:xlink="http://www.w3.org/1999/xlink" width="48" height="48" viewBox="0 0 48 48">
<rect fill="#ffffff" x="0" y="0" width="48" height="48"></rect>
<path fill="#444444" d="M36 32.16c-1.52 0-2.88 0.6-3.92 1.54l-14.26-8.3c0.1-0.46 0.18-0.92 0.18-1.4s-0.080-0.94-0.18-1.4l14.1-8.22c1.080 1 2.5 1.62 4.080 1.62 3.32 0 6-2.68 6-6s-2.68-6-6-6-6 2.68-6 6c0 0.48 0.080 0.94 0.18 1.4l-14.1 8.22c-1.080-1-2.5-1.62-4.080-1.62-3.32 0-6 2.68-6 6s2.68 6 6 6c1.58 0 3-0.62 4.080-1.62l14.24 8.32c-0.1 0.42-0.16 0.86-0.16 1.3 0 3.22 2.62 5.84 5.84 5.84s5.84-2.62 5.84-5.84-2.62-5.84-5.84-5.84z"></path>
</svg>
