<?xml version="1.0" encoding="utf-8"?>
<!-- Generated by IcoMoon.io -->
<!DOCTYPE svg PUBLIC "-//W3C//DTD SVG 1.1//EN" "http://www.w3.org/Graphics/SVG/1.1/DTD/svg11.dtd">
<svg version="1.1" xmlns="http://www.w3.org/2000/svg" xmlns:xlink="http://www.w3.org/1999/xlink" width="48" height="48" viewBox="0 0 48 48">
<rect fill="#ffffff" x="0" y="0" width="48" height="48"></rect>
<path fill="#444444" d="M14 36c-2.2 0-3.98 1.8-3.98 4s1.78 4 3.98 4 4-1.8 4-4-1.8-4-4-4zM2 4v4h4l7.2 15.18-2.7 4.9c-0.32 0.56-0.5 1.22-0.5 1.92 0 2.2 1.8 4 4 4h24v-4h-23.16c-0.28 0-0.5-0.22-0.5-0.5l0.060-0.24 1.8-3.26h14.9c1.5 0 2.82-0.82 3.5-2.060l7.16-12.98c0.16-0.28 0.24-0.62 0.24-0.96 0-1.1-0.9-2-2-2h-29.58l-1.88-4h-6.54zM34 36c-2.2 0-3.98 1.8-3.98 4s1.78 4 3.98 4 4-1.8 4-4-1.8-4-4-4z"></path>
</svg>
