<?xml version="1.0" encoding="utf-8"?>
<!-- Generated by IcoMoon.io -->
<!DOCTYPE svg PUBLIC "-//W3C//DTD SVG 1.1//EN" "http://www.w3.org/Graphics/SVG/1.1/DTD/svg11.dtd">
<svg version="1.1" xmlns="http://www.w3.org/2000/svg" xmlns:xlink="http://www.w3.org/1999/xlink" width="48" height="48" viewBox="0 0 48 48">
<rect fill="#ffffff" x="0" y="0" width="48" height="48"></rect>
<path fill="#444444" d="M48 24c-0.060-3.134-0.74-6.259-1.996-9.115-1.252-2.859-3.069-5.45-5.299-7.59-2.229-2.142-4.872-3.835-7.734-4.952-2.86-1.121-5.934-1.657-8.972-1.592-3.038 0.060-6.062 0.721-8.828 1.939-2.768 1.214-5.275 2.975-7.347 5.136-2.073 2.16-3.711 4.721-4.79 7.491-1.083 2.769-1.6 5.743-1.535 8.685 0.060 2.942 0.701 5.866 1.881 8.541 1.176 2.677 2.882 5.101 4.974 7.104 2.091 2.004 4.569 3.586 7.248 4.627 2.677 1.045 5.552 1.542 8.397 1.478 2.846-0.060 5.67-0.682 8.254-1.824 2.585-1.138 4.927-2.788 6.861-4.811 1.935-2.022 3.461-4.417 4.465-7.005 0.611-1.568 1.026-3.206 1.244-4.866 0.058 0.003 0.117 0.006 0.176 0.006 1.657 0 3-1.343 3-3 0-0.084-0.004-0.167-0.011-0.25h0.011zM43.233 31.966c-1.1 2.494-2.695 4.753-4.649 6.618-1.953 1.866-4.266 3.337-6.761 4.303-2.495 0.969-5.17 1.427-7.823 1.363-2.653-0.061-5.278-0.644-7.679-1.71-2.402-1.062-4.579-2.601-6.375-4.486-1.797-1.884-3.212-4.114-4.14-6.518-0.931-2.404-1.37-4.979-1.306-7.535 0.061-2.557 0.625-5.082 1.653-7.392 1.025-2.311 2.508-4.405 4.324-6.132 1.815-1.728 3.962-3.088 6.275-3.978 2.313-0.893 4.788-1.313 7.248-1.249 2.461 0.061 4.886 0.606 7.104 1.595 2.22 0.987 4.231 2.414 5.889 4.162 1.659 1.746 2.963 3.811 3.815 6.032 0.855 2.222 1.255 4.596 1.192 6.961h0.011c-0.007 0.083-0.011 0.166-0.011 0.25 0 1.547 1.171 2.821 2.676 2.982-0.292 1.632-0.775 3.226-1.443 4.734z"></path>
</svg>
