<?xml version="1.0" encoding="utf-8"?>
<!-- Generated by IcoMoon.io -->
<!DOCTYPE svg PUBLIC "-//W3C//DTD SVG 1.1//EN" "http://www.w3.org/Graphics/SVG/1.1/DTD/svg11.dtd">
<svg version="1.1" xmlns="http://www.w3.org/2000/svg" xmlns:xlink="http://www.w3.org/1999/xlink" width="48" height="48" viewBox="0 0 48 48">
<rect fill="#ffffff" x="0" y="0" width="48" height="48"></rect>
<path fill="#444444" d="M24 8v-6l-8 8 8 8v-6c6.62 0 12 5.38 12 12 0 2.020-0.5 3.94-1.4 5.6l2.92 2.92c1.56-2.46 2.48-5.38 2.48-8.52 0-8.84-7.16-16-16-16zM24 36c-6.62 0-12-5.38-12-12 0-2.020 0.5-3.94 1.4-5.6l-2.92-2.92c-1.56 2.46-2.48 5.38-2.48 8.52 0 8.84 7.16 16 16 16v6l8-8-8-8v6z"></path>
</svg>
