<?xml version="1.0" encoding="utf-8"?>
<!-- Generated by IcoMoon.io -->
<!DOCTYPE svg PUBLIC "-//W3C//DTD SVG 1.1//EN" "http://www.w3.org/Graphics/SVG/1.1/DTD/svg11.dtd">
<svg version="1.1" xmlns="http://www.w3.org/2000/svg" xmlns:xlink="http://www.w3.org/1999/xlink" width="48" height="48" viewBox="0 0 48 48">
<rect fill="#ffffff" x="0" y="0" width="48" height="48"></rect>
<path fill="#444444" d="M31 28h-1.58l-0.56-0.54c1.96-2.28 3.14-5.24 3.14-8.46 0-7.18-5.82-13-13-13s-13 5.82-13 13 5.82 13 13 13c3.22 0 6.18-1.18 8.46-3.14l0.54 0.56v1.58l10 9.98 2.98-2.98-9.98-10zM19 28c-4.98 0-9-4.020-9-9s4.020-9 9-9 9 4.020 9 9-4.020 9-9 9zM24 20h-4v4h-2v-4h-4v-2h4v-4h2v4h4v2z"></path>
</svg>
